<?xml version="1.0" encoding="UTF-8" standalone="no"?>
<svg
   xmlns:dc="http://purl.org/dc/elements/1.1/"
   xmlns:cc="http://creativecommons.org/ns#"
   xmlns:rdf="http://www.w3.org/1999/02/22-rdf-syntax-ns#"
   xmlns:svg="http://www.w3.org/2000/svg"
   xmlns="http://www.w3.org/2000/svg"
   xmlns:sodipodi="http://sodipodi.sourceforge.net/DTD/sodipodi-0.dtd"
   xmlns:inkscape="http://www.inkscape.org/namespaces/inkscape"
   width="40cm"
   height="27cm"
   viewBox="73 258 800 528"
   id="svg2"
   version="1.1"
   inkscape:version="0.48.1 r9760"
   sodipodi:docname="US04.svg"
   inkscape:export-filename="../imgs/US04.png"
   inkscape:export-xdpi="100"
   inkscape:export-ydpi="100">
  <metadata
     id="metadata288">
    <rdf:RDF>
      <cc:Work
         rdf:about="">
        <dc:format>image/svg+xml</dc:format>
        <dc:type
           rdf:resource="http://purl.org/dc/dcmitype/StillImage" />
        <dc:title></dc:title>
      </cc:Work>
    </rdf:RDF>
  </metadata>
  <defs
     id="defs286" />
  <sodipodi:namedview
     pagecolor="#ffffff"
     bordercolor="#666666"
     borderopacity="1"
     objecttolerance="10"
     gridtolerance="10"
     guidetolerance="10"
     inkscape:pageopacity="0"
     inkscape:pageshadow="2"
     inkscape:window-width="640"
     inkscape:window-height="480"
     id="namedview284"
     showgrid="false"
     inkscape:zoom="0.27490534"
     inkscape:cx="708.66144"
     inkscape:cy="478.34647"
     inkscape:window-x="0"
     inkscape:window-y="25"
     inkscape:window-maximized="0"
     inkscape:current-layer="svg2" />
  <g
     id="g4">
    <rect
       style="fill: #ffffff"
       x="509.675"
       y="400.9"
       width="80"
       height="36"
       rx="20"
       ry="20"
       id="rect6" />
    <rect
       style="fill: none; fill-opacity:0; stroke-width: 2; stroke: #000000"
       x="509.675"
       y="400.9"
       width="80"
       height="36"
       rx="20"
       ry="20"
       id="rect8" />
    <text
       style="fill: #000000;text-anchor:middle;font-size:12.7998;font-family:sanserif;font-style:normal;font-weight:normal"
       x="549.675"
       y="422.8"
       id="text10">
      <tspan
         x="549.675"
         y="422.8"
         id="tspan12">loggin</tspan>
    </text>
  </g>
  <g
     id="g14">
    <ellipse
       style="fill: #ffffff"
       cx="550.525"
       cy="277.55"
       rx="6"
       ry="6"
       id="ellipse16" />
    <ellipse
       style="fill: none; fill-opacity:0; stroke-width: 2; stroke: #000000"
       cx="550.525"
       cy="277.55"
       rx="6"
       ry="6"
       id="ellipse18" />
    <line
       style="fill: none; fill-opacity:0; stroke-width: 2; stroke: #000000"
       x1="526.525"
       y1="289.55"
       x2="574.525"
       y2="289.55"
       id="line20" />
    <line
       style="fill: none; fill-opacity:0; stroke-width: 2; stroke: #000000"
       x1="550.525"
       y1="283.55"
       x2="550.525"
       y2="313.55"
       id="line22" />
    <line
       style="fill: none; fill-opacity:0; stroke-width: 2; stroke: #000000"
       x1="550.525"
       y1="313.55"
       x2="526.525"
       y2="339.55"
       id="line24" />
    <line
       style="fill: none; fill-opacity:0; stroke-width: 2; stroke: #000000"
       x1="550.525"
       y1="313.55"
       x2="574.525"
       y2="339.55"
       id="line26" />
    <text
       style="fill: #000000;text-anchor:middle;font-size:12.7998;font-family:sanserif;font-style:normal;font-weight:normal"
       x="550.525"
       y="363.45"
       id="text28">
      <tspan
         x="550.525"
         y="363.45"
         id="tspan30">Manager</tspan>
    </text>
  </g>
  <g
     id="g32">
    <line
       style="fill: none; fill-opacity:0; stroke-width: 2; stroke: #000000"
       x1="549.99"
       y1="368.554"
       x2="549.77"
       y2="391.164"
       id="line34" />
    <polygon
       style="fill: #000000"
       points="549.697,398.664 544.794,388.616 549.77,391.164 554.794,388.713 "
       id="polygon36" />
    <polygon
       style="fill: none; fill-opacity:0; stroke-width: 2; stroke: #000000"
       points="549.697,398.664 544.794,388.616 549.77,391.164 554.794,388.713 "
       id="polygon38" />
  </g>
  <g
     id="g40">
    <rect
       style="fill: #e5e5e5"
       x="193.25"
       y="500.5"
       width="109.15"
       height="36"
       rx="20"
       ry="20"
       id="rect42" />
    <rect
       style="fill: none; fill-opacity:0; stroke-width: 2; stroke: #000000"
       x="193.25"
       y="500.5"
       width="109.15"
       height="36"
       rx="20"
       ry="20"
       id="rect44" />
    <text
       style="fill: #000000;text-anchor:middle;font-size:12.7998;font-family:sanserif;font-style:normal;font-weight:normal"
       x="247.825"
       y="522.4"
       id="text46">
      <tspan
         x="247.825"
         y="522.4"
         id="tspan48">create project</tspan>
    </text>
  </g>
  <g
     id="g50">
    <polyline
       style="fill: none; fill-opacity:0; stroke-width: 2; stroke: #000000"
       points="549.675,436.9 549.675,468.7 247.825,468.7 247.825,490.764 "
       id="polyline52" />
    <polygon
       style="fill: #000000"
       points="247.825,498.264 242.825,488.264 247.825,490.764 252.825,488.264 "
       id="polygon54" />
    <polygon
       style="fill: none; fill-opacity:0; stroke-width: 2; stroke: #000000"
       points="247.825,498.264 242.825,488.264 247.825,490.764 252.825,488.264 "
       id="polygon56" />
  </g>
  <g
     id="g58">
    <rect
       style="fill: #fffcb4"
       x="487.25"
       y="500.05"
       width="124.95"
       height="36"
       rx="20"
       ry="20"
       id="rect60" />
    <rect
       style="fill: none; fill-opacity:0; stroke-width: 2; stroke: #000000"
       x="487.25"
       y="500.05"
       width="124.95"
       height="36"
       rx="20"
       ry="20"
       id="rect62" />
    <text
       style="fill: #000000;text-anchor:middle;font-size:12.7998;font-family:sanserif;font-style:normal;font-weight:normal"
       x="549.725"
       y="521.95"
       id="text64">
      <tspan
         x="549.725"
         y="521.95"
         id="tspan66">go into a project</tspan>
    </text>
  </g>
  <g
     id="g68">
    <polyline
       style="fill: none; fill-opacity:0; stroke-width: 2; stroke: #000000"
       points="549.675,436.9 549.675,468.475 549.725,468.475 549.725,490.314 "
       id="polyline70" />
    <polygon
       style="fill: #000000"
       points="549.725,497.814 544.725,487.814 549.725,490.314 554.725,487.814 "
       id="polygon72" />
    <polygon
       style="fill: none; fill-opacity:0; stroke-width: 2; stroke: #000000"
       points="549.725,497.814 544.725,487.814 549.725,490.314 554.725,487.814 "
       id="polygon74" />
  </g>
  <g
     id="g76">
    <rect
       style="fill: #e5e5e5"
       x="190.95"
       y="569.6"
       width="113.75"
       height="36"
       rx="20"
       ry="20"
       id="rect78" />
    <rect
       style="fill: none; fill-opacity:0; stroke-width: 2; stroke: #000000"
       x="190.95"
       y="569.6"
       width="113.75"
       height="36"
       rx="20"
       ry="20"
       id="rect80" />
    <text
       style="fill: #000000;text-anchor:middle;font-size:12.7998;font-family:sanserif;font-style:normal;font-weight:normal"
       x="247.825"
       y="591.5"
       id="text82">
      <tspan
         x="247.825"
         y="591.5"
         id="tspan84">complete form</tspan>
    </text>
  </g>
  <g
     id="g86">
    <rect
       style="fill: #e5e5e5"
       x="109.3"
       y="662.65"
       width="92.85"
       height="52"
       rx="20"
       ry="20"
       id="rect88" />
    <rect
       style="fill: none; fill-opacity:0; stroke-width: 2; stroke: #000000"
       x="109.3"
       y="662.65"
       width="92.85"
       height="52"
       rx="20"
       ry="20"
       id="rect90" />
    <text
       style="fill: #000000;text-anchor:middle;font-size:12.7998;font-family:sanserif;font-style:normal;font-weight:normal"
       x="155.725"
       y="684.55"
       id="text92">
      <tspan
         x="155.725"
         y="684.55"
         id="tspan94">create  and</tspan>
      <tspan
         x="155.725"
         y="700.55"
         id="tspan96">continue</tspan>
    </text>
  </g>
  <g
     id="g98">
    <path
       style="fill: none; fill-opacity:0; stroke-width: 2; stroke: #000000"
       d="M 109.3 688.65 C 43.9024,682.838 72.0774,588.838 181.214,587.701"
       id="path100" />
    <polygon
       style="fill: #000000"
       points="188.714,587.623 178.767,592.727 181.214,587.701 178.663,582.728 "
       id="polygon102" />
    <polygon
       style="fill: none; fill-opacity:0; stroke-width: 2; stroke: #000000"
       points="188.714,587.623 178.767,592.727 181.214,587.701 178.663,582.728 "
       id="polygon104" />
  </g>
  <g
     id="g106">
    <rect
       style="fill: #e5e5e5"
       x="267.975"
       y="662.7"
       width="80"
       height="36"
       rx="20"
       ry="20"
       id="rect108" />
    <rect
       style="fill: none; fill-opacity:0; stroke-width: 2; stroke: #000000"
       x="267.975"
       y="662.7"
       width="80"
       height="36"
       rx="20"
       ry="20"
       id="rect110" />
    <text
       style="fill: #000000;text-anchor:middle;font-size:12.7998;font-family:sanserif;font-style:normal;font-weight:normal"
       x="307.975"
       y="684.6"
       id="text112">
      <tspan
         x="307.975"
         y="684.6"
         id="tspan114">create</tspan>
    </text>
  </g>
  <g
     id="g116">
    <rect
       style="fill: #e5e5e5"
       x="237.775"
       y="749.1"
       width="140.4"
       height="36"
       rx="20"
       ry="20"
       id="rect118" />
    <rect
       style="fill: none; fill-opacity:0; stroke-width: 2; stroke: #000000"
       x="237.775"
       y="749.1"
       width="140.4"
       height="36"
       rx="20"
       ry="20"
       id="rect120" />
    <text
       style="fill: #000000;text-anchor:middle;font-size:12.7998;font-family:sanserif;font-style:normal;font-weight:normal"
       x="307.975"
       y="771"
       id="text122">
      <tspan
         x="307.975"
         y="771"
         id="tspan124">go into this project</tspan>
    </text>
  </g>
  <g
     id="g126">
    <polyline
       style="fill: none; fill-opacity:0; stroke-width: 2; stroke: #000000"
       points="247.825,605.6 247.825,634.125 155.725,634.125 155.725,652.914 "
       id="polyline128" />
    <polygon
       style="fill: #000000"
       points="155.725,660.414 150.725,650.414 155.725,652.914 160.725,650.414 "
       id="polygon130" />
    <polygon
       style="fill: none; fill-opacity:0; stroke-width: 2; stroke: #000000"
       points="155.725,660.414 150.725,650.414 155.725,652.914 160.725,650.414 "
       id="polygon132" />
  </g>
  <g
     id="g134">
    <polyline
       style="fill: none; fill-opacity:0; stroke-width: 2; stroke: #000000"
       points="247.825,605.6 247.825,634.15 307.975,634.15 307.975,652.964 "
       id="polyline136" />
    <polygon
       style="fill: #000000"
       points="307.975,660.464 302.975,650.464 307.975,652.964 312.975,650.464 "
       id="polygon138" />
    <polygon
       style="fill: none; fill-opacity:0; stroke-width: 2; stroke: #000000"
       points="307.975,660.464 302.975,650.464 307.975,652.964 312.975,650.464 "
       id="polygon140" />
  </g>
  <g
     id="g142">
    <line
       style="fill: none; fill-opacity:0; stroke-width: 2; stroke: #000000"
       x1="247.825"
       y1="536.5"
       x2="247.825"
       y2="559.864"
       id="line144" />
    <polygon
       style="fill: #000000"
       points="247.825,567.364 242.825,557.364 247.825,559.864 252.825,557.364 "
       id="polygon146" />
    <polygon
       style="fill: none; fill-opacity:0; stroke-width: 2; stroke: #000000"
       points="247.825,567.364 242.825,557.364 247.825,559.864 252.825,557.364 "
       id="polygon148" />
  </g>
  <g
     id="g150">
    <line
       style="fill: none; fill-opacity:0; stroke-width: 2; stroke: #000000"
       x1="307.975"
       y1="698.7"
       x2="307.975"
       y2="739.364"
       id="line152" />
    <polygon
       style="fill: #000000"
       points="307.975,746.864 302.975,736.864 307.975,739.364 312.975,736.864 "
       id="polygon154" />
    <polygon
       style="fill: none; fill-opacity:0; stroke-width: 2; stroke: #000000"
       points="307.975,746.864 302.975,736.864 307.975,739.364 312.975,736.864 "
       id="polygon156" />
  </g>
  <g
     id="g158">
    <rect
       style="fill: #fffcb4"
       x="436.4"
       y="575.025"
       width="80"
       height="36"
       rx="20"
       ry="20"
       id="rect160" />
    <rect
       style="fill: none; fill-opacity:0; stroke-width: 2; stroke: #000000"
       x="436.4"
       y="575.025"
       width="80"
       height="36"
       rx="20"
       ry="20"
       id="rect162" />
    <text
       style="fill: #000000;text-anchor:middle;font-size:12.7998;font-family:sanserif;font-style:normal;font-weight:normal"
       x="476.4"
       y="596.925"
       id="text164">
      <tspan
         x="476.4"
         y="596.925"
         id="tspan166">modify</tspan>
    </text>
  </g>
  <g
     id="g168">
    <polyline
       style="fill: none; fill-opacity:0; stroke-width: 2; stroke: #000000"
       points="549.725,536.05 549.725,555.538 476.4,555.538 476.4,565.289 "
       id="polyline170" />
    <polygon
       style="fill: #000000"
       points="476.4,572.789 471.4,562.789 476.4,565.289 481.4,562.789 "
       id="polygon172" />
    <polygon
       style="fill: none; fill-opacity:0; stroke-width: 2; stroke: #000000"
       points="476.4,572.789 471.4,562.789 476.4,565.289 481.4,562.789 "
       id="polygon174" />
  </g>
  <g
     id="g176">
    <rect
       style="fill: #fffcb4"
       x="592.037"
       y="575.025"
       width="80"
       height="36"
       rx="20"
       ry="20"
       id="rect178" />
    <rect
       style="fill: none; fill-opacity:0; stroke-width: 2; stroke: #000000"
       x="592.037"
       y="575.025"
       width="80"
       height="36"
       rx="20"
       ry="20"
       id="rect180" />
    <text
       style="fill: #000000;text-anchor:middle;font-size:12.7998;font-family:sanserif;font-style:normal;font-weight:normal"
       x="632.037"
       y="596.925"
       id="text182">
      <tspan
         x="632.037"
         y="596.925"
         id="tspan184">delete</tspan>
    </text>
  </g>
  <g
     id="g186">
    <polyline
       style="fill: none; fill-opacity:0; stroke-width: 2; stroke: #000000"
       points="549.725,536.05 549.725,555.538 632.037,555.538 632.037,565.289 "
       id="polyline188" />
    <polygon
       style="fill: #000000"
       points="632.037,572.789 627.037,562.789 632.037,565.289 637.037,562.789 "
       id="polygon190" />
    <polygon
       style="fill: none; fill-opacity:0; stroke-width: 2; stroke: #000000"
       points="632.037,572.789 627.037,562.789 632.037,565.289 637.037,562.789 "
       id="polygon192" />
  </g>
  <g
     id="g194">
    <rect
       style="fill: #fffcb4"
       x="419.525"
       y="642.075"
       width="113.75"
       height="36"
       rx="20"
       ry="20"
       id="rect196" />
    <rect
       style="fill: none; fill-opacity:0; stroke-width: 2; stroke: #000000"
       x="419.525"
       y="642.075"
       width="113.75"
       height="36"
       rx="20"
       ry="20"
       id="rect198" />
    <text
       style="fill: #000000;text-anchor:middle;font-size:12.7998;font-family:sanserif;font-style:normal;font-weight:normal"
       x="476.4"
       y="663.975"
       id="text200">
      <tspan
         x="476.4"
         y="663.975"
         id="tspan202">complete form</tspan>
    </text>
  </g>
  <g
     id="g204">
    <rect
       style="fill: #fffcb4"
       x="592.037"
       y="645.125"
       width="80"
       height="36"
       rx="20"
       ry="20"
       id="rect206" />
    <rect
       style="fill: none; fill-opacity:0; stroke-width: 2; stroke: #000000"
       x="592.037"
       y="645.125"
       width="80"
       height="36"
       rx="20"
       ry="20"
       id="rect208" />
    <text
       style="fill: #000000;text-anchor:middle;font-size:12.7998;font-family:sanserif;font-style:normal;font-weight:normal"
       x="632.037"
       y="667.025"
       id="text210">
      <tspan
         x="632.037"
         y="667.025"
         id="tspan212">validate</tspan>
    </text>
  </g>
  <g
     id="g214">
    <line
       style="fill: none; fill-opacity:0; stroke-width: 2; stroke: #000000"
       x1="476.4"
       y1="611.025"
       x2="476.4"
       y2="632.339"
       id="line216" />
    <polygon
       style="fill: #000000"
       points="476.4,639.839 471.4,629.839 476.4,632.339 481.4,629.839 "
       id="polygon218" />
    <polygon
       style="fill: none; fill-opacity:0; stroke-width: 2; stroke: #000000"
       points="476.4,639.839 471.4,629.839 476.4,632.339 481.4,629.839 "
       id="polygon220" />
  </g>
  <g
     id="g222">
    <line
       style="fill: none; fill-opacity:0; stroke-width: 2; stroke: #000000"
       x1="632.037"
       y1="611.025"
       x2="632.037"
       y2="635.389"
       id="line224" />
    <polygon
       style="fill: #000000"
       points="632.037,642.889 627.037,632.889 632.037,635.389 637.037,632.889 "
       id="polygon226" />
    <polygon
       style="fill: none; fill-opacity:0; stroke-width: 2; stroke: #000000"
       points="632.037,642.889 627.037,632.889 632.037,635.389 637.037,632.889 "
       id="polygon228" />
  </g>
  <g
     id="g230">
    <rect
       style="fill: #ffebca"
       x="753.3"
       y="500.65"
       width="118.45"
       height="36"
       rx="20"
       ry="20"
       id="rect232" />
    <rect
       style="fill: none; fill-opacity:0; stroke-width: 2; stroke: #000000"
       x="753.3"
       y="500.65"
       width="118.45"
       height="36"
       rx="20"
       ry="20"
       id="rect234" />
    <text
       style="fill: #000000;text-anchor:middle;font-size:12.7998;font-family:sanserif;font-style:normal;font-weight:normal"
       x="812.525"
       y="522.55"
       id="text236">
      <tspan
         x="812.525"
         y="522.55"
         id="tspan238">select a project</tspan>
    </text>
  </g>
  <g
     id="g240">
    <polyline
       style="fill: none; fill-opacity:0; stroke-width: 2; stroke: #000000"
       points="549.675,436.9 549.675,468.775 812.525,468.775 812.525,490.914 "
       id="polyline242" />
    <polygon
       style="fill: #000000"
       points="812.525,498.414 807.525,488.414 812.525,490.914 817.525,488.414 "
       id="polygon244" />
    <polygon
       style="fill: none; fill-opacity:0; stroke-width: 2; stroke: #000000"
       points="812.525,498.414 807.525,488.414 812.525,490.914 817.525,488.414 "
       id="polygon246" />
  </g>
  <g
     id="g248">
    <rect
       style="fill: #ffebca"
       x="772.525"
       y="571.125"
       width="80"
       height="36"
       rx="20"
       ry="20"
       id="rect250" />
    <rect
       style="fill: none; fill-opacity:0; stroke-width: 2; stroke: #000000"
       x="772.525"
       y="571.125"
       width="80"
       height="36"
       rx="20"
       ry="20"
       id="rect252" />
    <text
       style="fill: #000000;text-anchor:middle;font-size:12.7998;font-family:sanserif;font-style:normal;font-weight:normal"
       x="812.525"
       y="593.025"
       id="text254">
      <tspan
         x="812.525"
         y="593.025"
         id="tspan256">delete</tspan>
    </text>
  </g>
  <g
     id="g258">
    <rect
       style="fill: #ffebca"
       x="772.525"
       y="641.225"
       width="80"
       height="36"
       rx="20"
       ry="20"
       id="rect260" />
    <rect
       style="fill: none; fill-opacity:0; stroke-width: 2; stroke: #000000"
       x="772.525"
       y="641.225"
       width="80"
       height="36"
       rx="20"
       ry="20"
       id="rect262" />
    <text
       style="fill: #000000;text-anchor:middle;font-size:12.7998;font-family:sanserif;font-style:normal;font-weight:normal"
       x="812.525"
       y="663.125"
       id="text264">
      <tspan
         x="812.525"
         y="663.125"
         id="tspan266">validate</tspan>
    </text>
  </g>
  <g
     id="g268">
    <line
       style="fill: none; fill-opacity:0; stroke-width: 2; stroke: #000000"
       x1="812.525"
       y1="536.65"
       x2="812.525"
       y2="561.389"
       id="line270" />
    <polygon
       style="fill: #000000"
       points="812.525,568.889 807.525,558.889 812.525,561.389 817.525,558.889 "
       id="polygon272" />
    <polygon
       style="fill: none; fill-opacity:0; stroke-width: 2; stroke: #000000"
       points="812.525,568.889 807.525,558.889 812.525,561.389 817.525,558.889 "
       id="polygon274" />
  </g>
  <g
     id="g276">
    <line
       style="fill: none; fill-opacity:0; stroke-width: 2; stroke: #000000"
       x1="812.525"
       y1="607.125"
       x2="812.525"
       y2="631.489"
       id="line278" />
    <polygon
       style="fill: #000000"
       points="812.525,638.989 807.525,628.989 812.525,631.489 817.525,628.989 "
       id="polygon280" />
    <polygon
       style="fill: none; fill-opacity:0; stroke-width: 2; stroke: #000000"
       points="812.525,638.989 807.525,628.989 812.525,631.489 817.525,628.989 "
       id="polygon282" />
  </g>
</svg>
