<?xml version="1.0" encoding="UTF-8" standalone="no"?>
<svg
   xmlns:dc="http://purl.org/dc/elements/1.1/"
   xmlns:cc="http://creativecommons.org/ns#"
   xmlns:rdf="http://www.w3.org/1999/02/22-rdf-syntax-ns#"
   xmlns:svg="http://www.w3.org/2000/svg"
   xmlns="http://www.w3.org/2000/svg"
   xmlns:sodipodi="http://sodipodi.sourceforge.net/DTD/sodipodi-0.dtd"
   xmlns:inkscape="http://www.inkscape.org/namespaces/inkscape"
   width="42cm"
   height="34cm"
   viewBox="73 258 827 664"
   id="svg2"
   version="1.1"
   inkscape:version="0.48.1 r9760"
   sodipodi:docname="US05.svg"
   inkscape:export-filename="../imgs/US05.png"
   inkscape:export-xdpi="100"
   inkscape:export-ydpi="100">
  <metadata
     id="metadata314">
    <rdf:RDF>
      <cc:Work
         rdf:about="">
        <dc:format>image/svg+xml</dc:format>
        <dc:type
           rdf:resource="http://purl.org/dc/dcmitype/StillImage" />
        <dc:title></dc:title>
      </cc:Work>
    </rdf:RDF>
  </metadata>
  <defs
     id="defs312" />
  <sodipodi:namedview
     pagecolor="#ffffff"
     bordercolor="#666666"
     borderopacity="1"
     objecttolerance="10"
     gridtolerance="10"
     guidetolerance="10"
     inkscape:pageopacity="0"
     inkscape:pageshadow="2"
     inkscape:window-width="640"
     inkscape:window-height="480"
     id="namedview310"
     showgrid="false"
     inkscape:zoom="0.2183072"
     inkscape:cx="744.09448"
     inkscape:cy="602.36218"
     inkscape:window-x="0"
     inkscape:window-y="25"
     inkscape:window-maximized="0"
     inkscape:current-layer="svg2" />
  <g
     id="g4">
    <rect
       style="fill: #ffffff"
       x="509.674"
       y="400.9"
       width="80"
       height="36"
       rx="20"
       ry="20"
       id="rect6" />
    <rect
       style="fill: none; fill-opacity:0; stroke-width: 2; stroke: #000000"
       x="509.674"
       y="400.9"
       width="80"
       height="36"
       rx="20"
       ry="20"
       id="rect8" />
    <text
       style="fill: #000000;text-anchor:middle;font-size:12.8;font-family:sanserif;font-style:normal;font-weight:normal"
       x="549.674"
       y="422.8"
       id="text10">
      <tspan
         x="549.674"
         y="422.8"
         id="tspan12">loggin</tspan>
    </text>
  </g>
  <g
     id="g14">
    <ellipse
       style="fill: #ffffff"
       cx="550.524"
       cy="277.55"
       rx="6"
       ry="6"
       id="ellipse16" />
    <ellipse
       style="fill: none; fill-opacity:0; stroke-width: 2; stroke: #000000"
       cx="550.524"
       cy="277.55"
       rx="6"
       ry="6"
       id="ellipse18" />
    <line
       style="fill: none; fill-opacity:0; stroke-width: 2; stroke: #000000"
       x1="526.524"
       y1="289.55"
       x2="574.524"
       y2="289.55"
       id="line20" />
    <line
       style="fill: none; fill-opacity:0; stroke-width: 2; stroke: #000000"
       x1="550.524"
       y1="283.55"
       x2="550.524"
       y2="313.55"
       id="line22" />
    <line
       style="fill: none; fill-opacity:0; stroke-width: 2; stroke: #000000"
       x1="550.524"
       y1="313.55"
       x2="526.524"
       y2="339.55"
       id="line24" />
    <line
       style="fill: none; fill-opacity:0; stroke-width: 2; stroke: #000000"
       x1="550.524"
       y1="313.55"
       x2="574.524"
       y2="339.55"
       id="line26" />
    <text
       style="fill: #000000;text-anchor:middle;font-size:12.8;font-family:sanserif;font-style:normal;font-weight:normal"
       x="550.524"
       y="363.45"
       id="text28">
      <tspan
         x="550.524"
         y="363.45"
         id="tspan30">Manager</tspan>
    </text>
  </g>
  <g
     id="g32">
    <line
       style="fill: none; fill-opacity:0; stroke-width: 2; stroke: #000000"
       x1="549.989"
       y1="368.554"
       x2="549.769"
       y2="391.164"
       id="line34" />
    <polygon
       style="fill: #000000"
       points="549.696,398.664 544.793,388.616 549.769,391.164 554.793,388.713 "
       id="polygon36" />
    <polygon
       style="fill: none; fill-opacity:0; stroke-width: 2; stroke: #000000"
       points="549.696,398.664 544.793,388.616 549.769,391.164 554.793,388.713 "
       id="polygon38" />
  </g>
  <g
     id="g40">
    <rect
       style="fill: #e5e5e5"
       x="181.25"
       y="636.5"
       width="136.1"
       height="36"
       rx="20"
       ry="20"
       id="rect42" />
    <rect
       style="fill: none; fill-opacity:0; stroke-width: 2; stroke: #000000"
       x="181.25"
       y="636.5"
       width="136.1"
       height="36"
       rx="20"
       ry="20"
       id="rect44" />
    <text
       style="fill: #000000;text-anchor:middle;font-size:12.8;font-family:sanserif;font-style:normal;font-weight:normal"
       x="249.3"
       y="658.4"
       id="text46">
      <tspan
         x="249.3"
         y="658.4"
         id="tspan48">create sub project</tspan>
    </text>
  </g>
  <g
     id="g50">
    <polyline
       style="fill: none; fill-opacity:0; stroke-width: 2; stroke: #000000"
       points="549.726,536.05 549.726,550 249.3,550 249.3,626.764 "
       id="polyline52" />
    <polygon
       style="fill: #000000"
       points="249.3,634.264 244.3,624.264 249.3,626.764 254.3,624.264 "
       id="polygon54" />
    <polygon
       style="fill: none; fill-opacity:0; stroke-width: 2; stroke: #000000"
       points="249.3,634.264 244.3,624.264 249.3,626.764 254.3,624.264 "
       id="polygon56" />
  </g>
  <g
     id="g58">
    <rect
       style="fill: #fffcb4"
       x="487.25"
       y="500.05"
       width="124.95"
       height="36"
       rx="20"
       ry="20"
       id="rect60" />
    <rect
       style="fill: none; fill-opacity:0; stroke-width: 2; stroke: #000000"
       x="487.25"
       y="500.05"
       width="124.95"
       height="36"
       rx="20"
       ry="20"
       id="rect62" />
    <text
       style="fill: #000000;text-anchor:middle;font-size:12.8;font-family:sanserif;font-style:normal;font-weight:normal"
       x="549.725"
       y="521.95"
       id="text64">
      <tspan
         x="549.725"
         y="521.95"
         id="tspan66">go into a project</tspan>
    </text>
  </g>
  <g
     id="g68">
    <polyline
       style="fill: none; fill-opacity:0; stroke-width: 2; stroke: #000000"
       points="549.674,436.9 549.674,468.475 549.725,468.475 549.725,490.314 "
       id="polyline70" />
    <polygon
       style="fill: #000000"
       points="549.725,497.814 544.725,487.814 549.725,490.314 554.725,487.814 "
       id="polygon72" />
    <polygon
       style="fill: none; fill-opacity:0; stroke-width: 2; stroke: #000000"
       points="549.725,497.814 544.725,487.814 549.725,490.314 554.725,487.814 "
       id="polygon74" />
  </g>
  <g
     id="g76">
    <rect
       style="fill: #e5e5e5"
       x="190.95"
       y="705.6"
       width="113.75"
       height="36"
       rx="20"
       ry="20"
       id="rect78" />
    <rect
       style="fill: none; fill-opacity:0; stroke-width: 2; stroke: #000000"
       x="190.95"
       y="705.6"
       width="113.75"
       height="36"
       rx="20"
       ry="20"
       id="rect80" />
    <text
       style="fill: #000000;text-anchor:middle;font-size:12.8;font-family:sanserif;font-style:normal;font-weight:normal"
       x="247.825"
       y="727.5"
       id="text82">
      <tspan
         x="247.825"
         y="727.5"
         id="tspan84">complete form</tspan>
    </text>
  </g>
  <g
     id="g86">
    <rect
       style="fill: #e5e5e5"
       x="109.3"
       y="798.65"
       width="92.85"
       height="52"
       rx="20"
       ry="20"
       id="rect88" />
    <rect
       style="fill: none; fill-opacity:0; stroke-width: 2; stroke: #000000"
       x="109.3"
       y="798.65"
       width="92.85"
       height="52"
       rx="20"
       ry="20"
       id="rect90" />
    <text
       style="fill: #000000;text-anchor:middle;font-size:12.8;font-family:sanserif;font-style:normal;font-weight:normal"
       x="155.725"
       y="820.55"
       id="text92">
      <tspan
         x="155.725"
         y="820.55"
         id="tspan94">create  and</tspan>
      <tspan
         x="155.725"
         y="836.55"
         id="tspan96">continue</tspan>
    </text>
  </g>
  <g
     id="g98">
    <path
       style="fill: none; fill-opacity:0; stroke-width: 2; stroke: #000000"
       d="M 109.3 824.65 C 43.9024,818.838 72.0774,724.838 181.214,723.701"
       id="path100" />
    <polygon
       style="fill: #000000"
       points="188.714,723.623 178.767,728.727 181.214,723.701 178.663,718.728 "
       id="polygon102" />
    <polygon
       style="fill: none; fill-opacity:0; stroke-width: 2; stroke: #000000"
       points="188.714,723.623 178.767,728.727 181.214,723.701 178.663,718.728 "
       id="polygon104" />
  </g>
  <g
     id="g106">
    <rect
       style="fill: #e5e5e5"
       x="267.974"
       y="798.7"
       width="80"
       height="36"
       rx="20"
       ry="20"
       id="rect108" />
    <rect
       style="fill: none; fill-opacity:0; stroke-width: 2; stroke: #000000"
       x="267.974"
       y="798.7"
       width="80"
       height="36"
       rx="20"
       ry="20"
       id="rect110" />
    <text
       style="fill: #000000;text-anchor:middle;font-size:12.8;font-family:sanserif;font-style:normal;font-weight:normal"
       x="307.974"
       y="820.6"
       id="text112">
      <tspan
         x="307.974"
         y="820.6"
         id="tspan114">create</tspan>
    </text>
  </g>
  <g
     id="g116">
    <rect
       style="fill: #e5e5e5"
       x="237.774"
       y="885.1"
       width="140.4"
       height="36"
       rx="20"
       ry="20"
       id="rect118" />
    <rect
       style="fill: none; fill-opacity:0; stroke-width: 2; stroke: #000000"
       x="237.774"
       y="885.1"
       width="140.4"
       height="36"
       rx="20"
       ry="20"
       id="rect120" />
    <text
       style="fill: #000000;text-anchor:middle;font-size:12.8;font-family:sanserif;font-style:normal;font-weight:normal"
       x="307.974"
       y="907"
       id="text122">
      <tspan
         x="307.974"
         y="907"
         id="tspan124">go into this project</tspan>
    </text>
  </g>
  <g
     id="g126">
    <polyline
       style="fill: none; fill-opacity:0; stroke-width: 2; stroke: #000000"
       points="247.825,741.6 247.825,770.125 155.725,770.125 155.725,788.914 "
       id="polyline128" />
    <polygon
       style="fill: #000000"
       points="155.725,796.414 150.725,786.414 155.725,788.914 160.725,786.414 "
       id="polygon130" />
    <polygon
       style="fill: none; fill-opacity:0; stroke-width: 2; stroke: #000000"
       points="155.725,796.414 150.725,786.414 155.725,788.914 160.725,786.414 "
       id="polygon132" />
  </g>
  <g
     id="g134">
    <polyline
       style="fill: none; fill-opacity:0; stroke-width: 2; stroke: #000000"
       points="247.825,741.6 247.825,770.15 307.974,770.15 307.974,788.964 "
       id="polyline136" />
    <polygon
       style="fill: #000000"
       points="307.974,796.464 302.974,786.464 307.974,788.964 312.974,786.464 "
       id="polygon138" />
    <polygon
       style="fill: none; fill-opacity:0; stroke-width: 2; stroke: #000000"
       points="307.974,796.464 302.974,786.464 307.974,788.964 312.974,786.464 "
       id="polygon140" />
  </g>
  <g
     id="g142">
    <line
       style="fill: none; fill-opacity:0; stroke-width: 2; stroke: #000000"
       x1="249.3"
       y1="672.5"
       x2="248.258"
       y2="695.874"
       id="line144" />
    <polygon
       style="fill: #000000"
       points="247.924,703.366 243.374,693.153 248.258,695.874 253.364,693.599 "
       id="polygon146" />
    <polygon
       style="fill: none; fill-opacity:0; stroke-width: 2; stroke: #000000"
       points="247.924,703.366 243.374,693.153 248.258,695.874 253.364,693.599 "
       id="polygon148" />
  </g>
  <g
     id="g150">
    <line
       style="fill: none; fill-opacity:0; stroke-width: 2; stroke: #000000"
       x1="307.974"
       y1="834.7"
       x2="307.974"
       y2="875.364"
       id="line152" />
    <polygon
       style="fill: #000000"
       points="307.974,882.864 302.974,872.864 307.974,875.364 312.974,872.864 "
       id="polygon154" />
    <polygon
       style="fill: none; fill-opacity:0; stroke-width: 2; stroke: #000000"
       points="307.974,882.864 302.974,872.864 307.974,875.364 312.974,872.864 "
       id="polygon156" />
  </g>
  <g
     id="g158">
    <rect
       style="fill: #fffcb4"
       x="435.65"
       y="699.776"
       width="80"
       height="36"
       rx="20"
       ry="20"
       id="rect160" />
    <rect
       style="fill: none; fill-opacity:0; stroke-width: 2; stroke: #000000"
       x="435.65"
       y="699.776"
       width="80"
       height="36"
       rx="20"
       ry="20"
       id="rect162" />
    <text
       style="fill: #000000;text-anchor:middle;font-size:12.8;font-family:sanserif;font-style:normal;font-weight:normal"
       x="475.65"
       y="721.676"
       id="text164">
      <tspan
         x="475.65"
         y="721.676"
         id="tspan166">modify</tspan>
    </text>
  </g>
  <g
     id="g168">
    <polyline
       style="fill: none; fill-opacity:0; stroke-width: 2; stroke: #000000"
       points="549.95,626.6 549.95,663.188 475.65,663.188 475.65,690.04 "
       id="polyline170" />
    <polygon
       style="fill: #000000"
       points="475.65,697.54 470.65,687.54 475.65,690.04 480.65,687.54 "
       id="polygon172" />
    <polygon
       style="fill: none; fill-opacity:0; stroke-width: 2; stroke: #000000"
       points="475.65,697.54 470.65,687.54 475.65,690.04 480.65,687.54 "
       id="polygon174" />
  </g>
  <g
     id="g176">
    <rect
       style="fill: #fffcb4"
       x="591.288"
       y="699.776"
       width="80"
       height="36"
       rx="20"
       ry="20"
       id="rect178" />
    <rect
       style="fill: none; fill-opacity:0; stroke-width: 2; stroke: #000000"
       x="591.288"
       y="699.776"
       width="80"
       height="36"
       rx="20"
       ry="20"
       id="rect180" />
    <text
       style="fill: #000000;text-anchor:middle;font-size:12.8;font-family:sanserif;font-style:normal;font-weight:normal"
       x="631.288"
       y="721.676"
       id="text182">
      <tspan
         x="631.288"
         y="721.676"
         id="tspan184">delete</tspan>
    </text>
  </g>
  <g
     id="g186">
    <polyline
       style="fill: none; fill-opacity:0; stroke-width: 2; stroke: #000000"
       points="549.95,626.6 549.95,663.188 631.288,663.188 631.288,690.04 "
       id="polyline188" />
    <polygon
       style="fill: #000000"
       points="631.288,697.54 626.288,687.54 631.288,690.04 636.288,687.54 "
       id="polygon190" />
    <polygon
       style="fill: none; fill-opacity:0; stroke-width: 2; stroke: #000000"
       points="631.288,697.54 626.288,687.54 631.288,690.04 636.288,687.54 "
       id="polygon192" />
  </g>
  <g
     id="g194">
    <rect
       style="fill: #fffcb4"
       x="418.774"
       y="766.826"
       width="113.75"
       height="36"
       rx="20"
       ry="20"
       id="rect196" />
    <rect
       style="fill: none; fill-opacity:0; stroke-width: 2; stroke: #000000"
       x="418.774"
       y="766.826"
       width="113.75"
       height="36"
       rx="20"
       ry="20"
       id="rect198" />
    <text
       style="fill: #000000;text-anchor:middle;font-size:12.8;font-family:sanserif;font-style:normal;font-weight:normal"
       x="475.649"
       y="788.726"
       id="text200">
      <tspan
         x="475.649"
         y="788.726"
         id="tspan202">complete form</tspan>
    </text>
  </g>
  <g
     id="g204">
    <rect
       style="fill: #fffcb4"
       x="591.288"
       y="769.876"
       width="80"
       height="36"
       rx="20"
       ry="20"
       id="rect206" />
    <rect
       style="fill: none; fill-opacity:0; stroke-width: 2; stroke: #000000"
       x="591.288"
       y="769.876"
       width="80"
       height="36"
       rx="20"
       ry="20"
       id="rect208" />
    <text
       style="fill: #000000;text-anchor:middle;font-size:12.8;font-family:sanserif;font-style:normal;font-weight:normal"
       x="631.288"
       y="791.776"
       id="text210">
      <tspan
         x="631.288"
         y="791.776"
         id="tspan212">validate</tspan>
    </text>
  </g>
  <g
     id="g214">
    <line
       style="fill: none; fill-opacity:0; stroke-width: 2; stroke: #000000"
       x1="475.65"
       y1="735.776"
       x2="475.65"
       y2="757.09"
       id="line216" />
    <polygon
       style="fill: #000000"
       points="475.65,764.59 470.65,754.59 475.65,757.09 480.65,754.59 "
       id="polygon218" />
    <polygon
       style="fill: none; fill-opacity:0; stroke-width: 2; stroke: #000000"
       points="475.65,764.59 470.65,754.59 475.65,757.09 480.65,754.59 "
       id="polygon220" />
  </g>
  <g
     id="g222">
    <line
       style="fill: none; fill-opacity:0; stroke-width: 2; stroke: #000000"
       x1="631.288"
       y1="735.776"
       x2="631.288"
       y2="760.14"
       id="line224" />
    <polygon
       style="fill: #000000"
       points="631.288,767.64 626.288,757.64 631.288,760.14 636.288,757.64 "
       id="polygon226" />
    <polygon
       style="fill: none; fill-opacity:0; stroke-width: 2; stroke: #000000"
       points="631.288,767.64 626.288,757.64 631.288,760.14 636.288,757.64 "
       id="polygon228" />
  </g>
  <g
     id="g230">
    <rect
       style="fill: #ffebca"
       x="753.3"
       y="620.65"
       width="145.4"
       height="36"
       rx="20"
       ry="20"
       id="rect232" />
    <rect
       style="fill: none; fill-opacity:0; stroke-width: 2; stroke: #000000"
       x="753.3"
       y="620.65"
       width="145.4"
       height="36"
       rx="20"
       ry="20"
       id="rect234" />
    <text
       style="fill: #000000;text-anchor:middle;font-size:12.8;font-family:sanserif;font-style:normal;font-weight:normal"
       x="826"
       y="642.55"
       id="text236">
      <tspan
         x="826"
         y="642.55"
         id="tspan238">select a sub project</tspan>
    </text>
  </g>
  <g
     id="g240">
    <polyline
       style="fill: none; fill-opacity:0; stroke-width: 2; stroke: #000000"
       points="549.726,536.05 549.726,550 826,550 826,610.914 "
       id="polyline242" />
    <polygon
       style="fill: #000000"
       points="826,618.414 821,608.414 826,610.914 831,608.414 "
       id="polygon244" />
    <polygon
       style="fill: none; fill-opacity:0; stroke-width: 2; stroke: #000000"
       points="826,618.414 821,608.414 826,610.914 831,608.414 "
       id="polygon246" />
  </g>
  <g
     id="g248">
    <rect
       style="fill: #ffebca"
       x="786"
       y="691.126"
       width="80"
       height="36"
       rx="20"
       ry="20"
       id="rect250" />
    <rect
       style="fill: none; fill-opacity:0; stroke-width: 2; stroke: #000000"
       x="786"
       y="691.126"
       width="80"
       height="36"
       rx="20"
       ry="20"
       id="rect252" />
    <text
       style="fill: #000000;text-anchor:middle;font-size:12.8;font-family:sanserif;font-style:normal;font-weight:normal"
       x="826"
       y="713.026"
       id="text254">
      <tspan
         x="826"
         y="713.026"
         id="tspan256">delete</tspan>
    </text>
  </g>
  <g
     id="g258">
    <rect
       style="fill: #ffebca"
       x="786"
       y="761.226"
       width="80"
       height="36"
       rx="20"
       ry="20"
       id="rect260" />
    <rect
       style="fill: none; fill-opacity:0; stroke-width: 2; stroke: #000000"
       x="786"
       y="761.226"
       width="80"
       height="36"
       rx="20"
       ry="20"
       id="rect262" />
    <text
       style="fill: #000000;text-anchor:middle;font-size:12.8;font-family:sanserif;font-style:normal;font-weight:normal"
       x="826"
       y="783.126"
       id="text264">
      <tspan
         x="826"
         y="783.126"
         id="tspan266">validate</tspan>
    </text>
  </g>
  <g
     id="g268">
    <line
       style="fill: none; fill-opacity:0; stroke-width: 2; stroke: #000000"
       x1="826"
       y1="656.65"
       x2="826"
       y2="681.39"
       id="line270" />
    <polygon
       style="fill: #000000"
       points="826,688.89 821,678.89 826,681.39 831,678.89 "
       id="polygon272" />
    <polygon
       style="fill: none; fill-opacity:0; stroke-width: 2; stroke: #000000"
       points="826,688.89 821,678.89 826,681.39 831,678.89 "
       id="polygon274" />
  </g>
  <g
     id="g276">
    <line
       style="fill: none; fill-opacity:0; stroke-width: 2; stroke: #000000"
       x1="826"
       y1="727.126"
       x2="826"
       y2="751.49"
       id="line278" />
    <polygon
       style="fill: #000000"
       points="826,758.99 821,748.99 826,751.49 831,748.99 "
       id="polygon280" />
    <polygon
       style="fill: none; fill-opacity:0; stroke-width: 2; stroke: #000000"
       points="826,758.99 821,748.99 826,751.49 831,748.99 "
       id="polygon282" />
  </g>
  <g
     id="g284">
    <polyline
       style="fill: none; fill-opacity:0; stroke-width: 2; stroke: #000000"
       points="549.674,436.9 549.674,460 249.3,460 249.3,626.764 "
       id="polyline286" />
    <polygon
       style="fill: #000000"
       points="249.3,634.264 244.3,624.264 249.3,626.764 254.3,624.264 "
       id="polygon288" />
    <polygon
       style="fill: none; fill-opacity:0; stroke-width: 2; stroke: #000000"
       points="249.3,634.264 244.3,624.264 249.3,626.764 254.3,624.264 "
       id="polygon290" />
  </g>
  <g
     id="g292">
    <rect
       style="fill: #fffcb4"
       x="474"
       y="590.6"
       width="151.9"
       height="36"
       rx="20"
       ry="20"
       id="rect294" />
    <rect
       style="fill: none; fill-opacity:0; stroke-width: 2; stroke: #000000"
       x="474"
       y="590.6"
       width="151.9"
       height="36"
       rx="20"
       ry="20"
       id="rect296" />
    <text
       style="fill: #000000;text-anchor:middle;font-size:12.8;font-family:sanserif;font-style:normal;font-weight:normal"
       x="549.95"
       y="612.5"
       id="text298">
      <tspan
         x="549.95"
         y="612.5"
         id="tspan300">go into a sub project</tspan>
    </text>
  </g>
  <g
     id="g302">
    <line
       style="fill: none; fill-opacity:0; stroke-width: 2; stroke: #000000"
       x1="549.726"
       y1="536.05"
       x2="549.91"
       y2="580.864"
       id="line304" />
    <polygon
       style="fill: #000000"
       points="549.941,588.364 544.9,578.385 549.91,580.864 554.9,578.344 "
       id="polygon306" />
    <polygon
       style="fill: none; fill-opacity:0; stroke-width: 2; stroke: #000000"
       points="549.941,588.364 544.9,578.385 549.91,580.864 554.9,578.344 "
       id="polygon308" />
  </g>
</svg>
