<?xml version="1.0" encoding="UTF-8" standalone="no"?>
<svg
   xmlns:dc="http://purl.org/dc/elements/1.1/"
   xmlns:cc="http://creativecommons.org/ns#"
   xmlns:rdf="http://www.w3.org/1999/02/22-rdf-syntax-ns#"
   xmlns:svg="http://www.w3.org/2000/svg"
   xmlns="http://www.w3.org/2000/svg"
   xmlns:sodipodi="http://sodipodi.sourceforge.net/DTD/sodipodi-0.dtd"
   xmlns:inkscape="http://www.inkscape.org/namespaces/inkscape"
   width="47cm"
   height="37cm"
   viewBox="82 258 923 738"
   id="svg2"
   version="1.1"
   inkscape:version="0.48.1 r9760"
   sodipodi:docname="US07.svg"
   inkscape:export-filename="../imgs/US07.png"
   inkscape:export-xdpi="100"
   inkscape:export-ydpi="100">
  <metadata
     id="metadata386">
    <rdf:RDF>
      <cc:Work
         rdf:about="">
        <dc:format>image/svg+xml</dc:format>
        <dc:type
           rdf:resource="http://purl.org/dc/dcmitype/StillImage" />
        <dc:title></dc:title>
      </cc:Work>
    </rdf:RDF>
  </metadata>
  <defs
     id="defs384" />
  <sodipodi:namedview
     pagecolor="#ffffff"
     bordercolor="#666666"
     borderopacity="1"
     objecttolerance="10"
     gridtolerance="10"
     guidetolerance="10"
     inkscape:pageopacity="0"
     inkscape:pageshadow="2"
     inkscape:window-width="640"
     inkscape:window-height="480"
     id="namedview382"
     showgrid="false"
     inkscape:zoom="0.2006066"
     inkscape:cx="832.67719"
     inkscape:cy="655.51184"
     inkscape:window-x="0"
     inkscape:window-y="25"
     inkscape:window-maximized="0"
     inkscape:current-layer="svg2" />
  <g
     id="g4">
    <rect
       style="fill: #ffffff"
       x="513.174"
       y="400.9"
       width="80"
       height="36"
       rx="20"
       ry="20"
       id="rect6" />
    <rect
       style="fill: none; fill-opacity:0; stroke-width: 2; stroke: #000000"
       x="513.174"
       y="400.9"
       width="80"
       height="36"
       rx="20"
       ry="20"
       id="rect8" />
    <text
       style="fill: #000000;text-anchor:middle;font-size:12.8;font-family:sanserif;font-style:normal;font-weight:normal"
       x="553.174"
       y="422.8"
       id="text10">
      <tspan
         x="553.174"
         y="422.8"
         id="tspan12">loggin</tspan>
    </text>
  </g>
  <g
     id="g14">
    <ellipse
       style="fill: #ffffff"
       cx="553.174"
       cy="277.55"
       rx="6"
       ry="6"
       id="ellipse16" />
    <ellipse
       style="fill: none; fill-opacity:0; stroke-width: 2; stroke: #000000"
       cx="553.174"
       cy="277.55"
       rx="6"
       ry="6"
       id="ellipse18" />
    <line
       style="fill: none; fill-opacity:0; stroke-width: 2; stroke: #000000"
       x1="529.174"
       y1="289.55"
       x2="577.174"
       y2="289.55"
       id="line20" />
    <line
       style="fill: none; fill-opacity:0; stroke-width: 2; stroke: #000000"
       x1="553.174"
       y1="283.55"
       x2="553.174"
       y2="313.55"
       id="line22" />
    <line
       style="fill: none; fill-opacity:0; stroke-width: 2; stroke: #000000"
       x1="553.174"
       y1="313.55"
       x2="529.174"
       y2="339.55"
       id="line24" />
    <line
       style="fill: none; fill-opacity:0; stroke-width: 2; stroke: #000000"
       x1="553.174"
       y1="313.55"
       x2="577.174"
       y2="339.55"
       id="line26" />
    <text
       style="fill: #000000;text-anchor:middle;font-size:12.8;font-family:sanserif;font-style:normal;font-weight:normal"
       x="553.174"
       y="363.45"
       id="text28">
      <tspan
         x="553.174"
         y="363.45"
         id="tspan30">Member</tspan>
    </text>
  </g>
  <g
     id="g32">
    <line
       style="fill: none; fill-opacity:0; stroke-width: 2; stroke: #000000"
       x1="553.174"
       y1="368.554"
       x2="553.174"
       y2="391.164"
       id="line34" />
    <polygon
       style="fill: #000000"
       points="553.174,398.664 548.174,388.664 553.174,391.164 558.174,388.664 "
       id="polygon36" />
    <polygon
       style="fill: none; fill-opacity:0; stroke-width: 2; stroke: #000000"
       points="553.174,398.664 548.174,388.664 553.174,391.164 558.174,388.664 "
       id="polygon38" />
  </g>
  <g
     id="g40">
    <rect
       style="fill: #fffcb4"
       x="491.2"
       y="486.55"
       width="124.95"
       height="36"
       rx="20"
       ry="20"
       id="rect42" />
    <rect
       style="fill: none; fill-opacity:0; stroke-width: 2; stroke: #000000"
       x="491.2"
       y="486.55"
       width="124.95"
       height="36"
       rx="20"
       ry="20"
       id="rect44" />
    <text
       style="fill: #000000;text-anchor:middle;font-size:12.8;font-family:sanserif;font-style:normal;font-weight:normal"
       x="553.675"
       y="508.45"
       id="text46">
      <tspan
         x="553.675"
         y="508.45"
         id="tspan48">go into a project</tspan>
    </text>
  </g>
  <g
     id="g50">
    <rect
       style="fill: #ffebca"
       x="782"
       y="640.626"
       width="80"
       height="36"
       rx="20"
       ry="20"
       id="rect52" />
    <rect
       style="fill: none; fill-opacity:0; stroke-width: 2; stroke: #000000"
       x="782"
       y="640.626"
       width="80"
       height="36"
       rx="20"
       ry="20"
       id="rect54" />
    <text
       style="fill: #000000;text-anchor:middle;font-size:12.8;font-family:sanserif;font-style:normal;font-weight:normal"
       x="822"
       y="662.526"
       id="text56">
      <tspan
         x="822"
         y="662.526"
         id="tspan58">delete</tspan>
    </text>
  </g>
  <g
     id="g60">
    <rect
       style="fill: #ffebca"
       x="782"
       y="710.726"
       width="80"
       height="36"
       rx="20"
       ry="20"
       id="rect62" />
    <rect
       style="fill: none; fill-opacity:0; stroke-width: 2; stroke: #000000"
       x="782"
       y="710.726"
       width="80"
       height="36"
       rx="20"
       ry="20"
       id="rect64" />
    <text
       style="fill: #000000;text-anchor:middle;font-size:12.8;font-family:sanserif;font-style:normal;font-weight:normal"
       x="822"
       y="732.626"
       id="text66">
      <tspan
         x="822"
         y="732.626"
         id="tspan68">validate</tspan>
    </text>
  </g>
  <g
     id="g70">
    <line
       style="fill: none; fill-opacity:0; stroke-width: 2; stroke: #000000"
       x1="822"
       y1="676.626"
       x2="822"
       y2="700.99"
       id="line72" />
    <polygon
       style="fill: #000000"
       points="822,708.49 817,698.49 822,700.99 827,698.49 "
       id="polygon74" />
    <polygon
       style="fill: none; fill-opacity:0; stroke-width: 2; stroke: #000000"
       points="822,708.49 817,698.49 822,700.99 827,698.49 "
       id="polygon76" />
  </g>
  <g
     id="g78">
    <rect
       style="fill: #e5e5e5"
       x="197.7"
       y="525.376"
       width="89.25"
       height="36.002"
       rx="20"
       ry="20"
       id="rect80" />
    <rect
       style="fill: none; fill-opacity:0; stroke-width: 2; stroke: #000000"
       x="197.7"
       y="525.376"
       width="89.25"
       height="36.002"
       rx="20"
       ry="20"
       id="rect82" />
    <text
       style="fill: #000000;text-anchor:middle;font-size:12.8016;font-family:sanserif;font-style:normal;font-weight:normal"
       x="242.325"
       y="547.276"
       id="text84">
      <tspan
         x="242.325"
         y="547.276"
         id="tspan86">create test</tspan>
    </text>
  </g>
  <g
     id="g88">
    <rect
       style="fill: #fffcb4"
       x="500.25"
       y="569.8"
       width="105.05"
       height="36"
       rx="20"
       ry="20"
       id="rect90" />
    <rect
       style="fill: none; fill-opacity:0; stroke-width: 2; stroke: #000000"
       x="500.25"
       y="569.8"
       width="105.05"
       height="36"
       rx="20"
       ry="20"
       id="rect92" />
    <text
       style="fill: #000000;text-anchor:middle;font-size:12.8;font-family:sanserif;font-style:normal;font-weight:normal"
       x="552.775"
       y="591.7"
       id="text94">
      <tspan
         x="552.775"
         y="591.7"
         id="tspan96">go into a test</tspan>
    </text>
  </g>
  <g
     id="g98">
    <rect
       style="fill: #ffebca"
       x="843.55"
       y="564.376"
       width="86.65"
       height="36"
       rx="20"
       ry="20"
       id="rect100" />
    <rect
       style="fill: none; fill-opacity:0; stroke-width: 2; stroke: #000000"
       x="843.55"
       y="564.376"
       width="86.65"
       height="36"
       rx="20"
       ry="20"
       id="rect102" />
    <text
       style="fill: #000000;text-anchor:middle;font-size:12.8;font-family:sanserif;font-style:normal;font-weight:normal"
       x="886.875"
       y="586.276"
       id="text104">
      <tspan
         x="886.875"
         y="586.276"
         id="tspan106">select test</tspan>
    </text>
  </g>
  <g
     id="g108">
    <polyline
       style="fill: none; fill-opacity:0; stroke-width: 2; stroke: #000000"
       points="553.675,522.55 553.675,543.463 886.875,543.463 886.875,554.64 "
       id="polyline110" />
    <polygon
       style="fill: #000000"
       points="886.875,562.14 881.875,552.14 886.875,554.64 891.875,552.14 "
       id="polygon112" />
    <polygon
       style="fill: none; fill-opacity:0; stroke-width: 2; stroke: #000000"
       points="886.875,562.14 881.875,552.14 886.875,554.64 891.875,552.14 "
       id="polygon114" />
  </g>
  <g
     id="g116">
    <rect
       style="fill: #fffcb4"
       x="426.8"
       y="668.55"
       width="80"
       height="36"
       rx="20"
       ry="20"
       id="rect118" />
    <rect
       style="fill: none; fill-opacity:0; stroke-width: 2; stroke: #000000"
       x="426.8"
       y="668.55"
       width="80"
       height="36"
       rx="20"
       ry="20"
       id="rect120" />
    <text
       style="fill: #000000;text-anchor:middle;font-size:12.8;font-family:sanserif;font-style:normal;font-weight:normal"
       x="466.8"
       y="690.45"
       id="text122">
      <tspan
         x="466.8"
         y="690.45"
         id="tspan124">modify</tspan>
    </text>
  </g>
  <g
     id="g126">
    <rect
       style="fill: #fffcb4"
       x="602.35"
       y="668.8"
       width="80"
       height="36"
       rx="20"
       ry="20"
       id="rect128" />
    <rect
       style="fill: none; fill-opacity:0; stroke-width: 2; stroke: #000000"
       x="602.35"
       y="668.8"
       width="80"
       height="36"
       rx="20"
       ry="20"
       id="rect130" />
    <text
       style="fill: #000000;text-anchor:middle;font-size:12.8;font-family:sanserif;font-style:normal;font-weight:normal"
       x="642.35"
       y="690.7"
       id="text132">
      <tspan
         x="642.35"
         y="690.7"
         id="tspan134">delete</tspan>
    </text>
  </g>
  <g
     id="g136">
    <rect
       style="fill: #fffcb4"
       x="601.9"
       y="749.55"
       width="80"
       height="36"
       rx="20"
       ry="20"
       id="rect138" />
    <rect
       style="fill: none; fill-opacity:0; stroke-width: 2; stroke: #000000"
       x="601.9"
       y="749.55"
       width="80"
       height="36"
       rx="20"
       ry="20"
       id="rect140" />
    <text
       style="fill: #000000;text-anchor:middle;font-size:12.8;font-family:sanserif;font-style:normal;font-weight:normal"
       x="641.9"
       y="771.45"
       id="text142">
      <tspan
         x="641.9"
         y="771.45"
         id="tspan144">validate</tspan>
    </text>
  </g>
  <g
     id="g146">
    <rect
       style="fill: #fffcb4"
       x="409.85"
       y="746.3"
       width="113.75"
       height="36"
       rx="20"
       ry="20"
       id="rect148" />
    <rect
       style="fill: none; fill-opacity:0; stroke-width: 2; stroke: #000000"
       x="409.85"
       y="746.3"
       width="113.75"
       height="36"
       rx="20"
       ry="20"
       id="rect150" />
    <text
       style="fill: #000000;text-anchor:middle;font-size:12.8;font-family:sanserif;font-style:normal;font-weight:normal"
       x="466.725"
       y="768.2"
       id="text152">
      <tspan
         x="466.725"
         y="768.2"
         id="tspan154">complete form</tspan>
    </text>
  </g>
  <g
     id="g156">
    <polyline
       style="fill: none; fill-opacity:0; stroke-width: 2; stroke: #000000"
       points="553.174,436.9 553.174,458 242.324,458 242.324,515.64 "
       id="polyline158" />
    <polygon
       style="fill: #000000"
       points="242.324,523.14 237.324,513.14 242.324,515.64 247.324,513.14 "
       id="polygon160" />
    <polygon
       style="fill: none; fill-opacity:0; stroke-width: 2; stroke: #000000"
       points="242.324,523.14 237.324,513.14 242.324,515.64 247.324,513.14 "
       id="polygon162" />
  </g>
  <g
     id="g164">
    <polyline
       style="fill: none; fill-opacity:0; stroke-width: 2; stroke: #000000"
       points="553.675,522.55 553.675,543.377 296.686,543.377 "
       id="polyline166" />
    <polygon
       style="fill: #000000"
       points="289.186,543.377 299.186,538.377 296.686,543.377 299.186,548.377 "
       id="polygon168" />
    <polygon
       style="fill: none; fill-opacity:0; stroke-width: 2; stroke: #000000"
       points="289.186,543.377 299.186,538.377 296.686,543.377 299.186,548.377 "
       id="polygon170" />
  </g>
  <g
     id="g172">
    <line
       style="fill: none; fill-opacity:0; stroke-width: 2; stroke: #000000"
       x1="553.174"
       y1="436.9"
       x2="553.578"
       y2="476.814"
       id="line174" />
    <polygon
       style="fill: #000000"
       points="553.653,484.314 548.553,474.365 553.578,476.814 558.552,474.264 "
       id="polygon176" />
    <polygon
       style="fill: none; fill-opacity:0; stroke-width: 2; stroke: #000000"
       points="553.653,484.314 548.553,474.365 553.578,476.814 558.552,474.264 "
       id="polygon178" />
  </g>
  <g
     id="g180">
    <line
       style="fill: none; fill-opacity:0; stroke-width: 2; stroke: #000000"
       x1="642.35"
       y1="704.8"
       x2="641.998"
       y2="739.814"
       id="line182" />
    <polygon
       style="fill: #000000"
       points="641.922,747.314 637.023,737.264 641.998,739.814 647.023,737.365 "
       id="polygon184" />
    <polygon
       style="fill: none; fill-opacity:0; stroke-width: 2; stroke: #000000"
       points="641.922,747.314 637.023,737.264 641.998,739.814 647.023,737.365 "
       id="polygon186" />
  </g>
  <g
     id="g188">
    <line
       style="fill: none; fill-opacity:0; stroke-width: 2; stroke: #000000"
       x1="553.676"
       y1="522.55"
       x2="552.96"
       y2="560.066"
       id="line190" />
    <polygon
       style="fill: #000000"
       points="552.817,567.564 548.008,557.471 552.96,560.066 558.007,557.662 "
       id="polygon192" />
    <polygon
       style="fill: none; fill-opacity:0; stroke-width: 2; stroke: #000000"
       points="552.817,567.564 548.008,557.471 552.96,560.066 558.007,557.662 "
       id="polygon194" />
  </g>
  <g
     id="g196">
    <line
       style="fill: none; fill-opacity:0; stroke-width: 2; stroke: #000000"
       x1="466.8"
       y1="704.55"
       x2="466.742"
       y2="736.564"
       id="line198" />
    <polygon
       style="fill: #000000"
       points="466.728,744.064 461.746,734.055 466.742,736.564 471.746,734.073 "
       id="polygon200" />
    <polygon
       style="fill: none; fill-opacity:0; stroke-width: 2; stroke: #000000"
       points="466.728,744.064 461.746,734.055 466.742,736.564 471.746,734.073 "
       id="polygon202" />
  </g>
  <g
     id="g204">
    <polyline
       style="fill: none; fill-opacity:0; stroke-width: 2; stroke: #000000"
       points="552.775,605.8 552.775,637.3 642.35,637.3 642.35,659.064 "
       id="polyline206" />
    <polygon
       style="fill: #000000"
       points="642.35,666.564 637.35,656.564 642.35,659.064 647.35,656.564 "
       id="polygon208" />
    <polygon
       style="fill: none; fill-opacity:0; stroke-width: 2; stroke: #000000"
       points="642.35,666.564 637.35,656.564 642.35,659.064 647.35,656.564 "
       id="polygon210" />
  </g>
  <g
     id="g212">
    <polyline
       style="fill: none; fill-opacity:0; stroke-width: 2; stroke: #000000"
       points="552.775,605.8 552.775,637.175 466.8,637.175 466.8,658.814 "
       id="polyline214" />
    <polygon
       style="fill: #000000"
       points="466.8,666.314 461.8,656.314 466.8,658.814 471.8,656.314 "
       id="polygon216" />
    <polygon
       style="fill: none; fill-opacity:0; stroke-width: 2; stroke: #000000"
       points="466.8,666.314 461.8,656.314 466.8,658.814 471.8,656.314 "
       id="polygon218" />
  </g>
  <g
     id="g220">
    <rect
       style="fill: #e5e5e5"
       x="186.05"
       y="607.7"
       width="113.75"
       height="36"
       rx="20"
       ry="20"
       id="rect222" />
    <rect
       style="fill: none; fill-opacity:0; stroke-width: 2; stroke: #000000"
       x="186.05"
       y="607.7"
       width="113.75"
       height="36"
       rx="20"
       ry="20"
       id="rect224" />
    <text
       style="fill: #000000;text-anchor:middle;font-size:12.8;font-family:sanserif;font-style:normal;font-weight:normal"
       x="242.925"
       y="629.6"
       id="text226">
      <tspan
         x="242.925"
         y="629.6"
         id="tspan228">complete form</tspan>
    </text>
  </g>
  <g
     id="g230">
    <rect
       style="fill: #e5e5e5"
       x="250.25"
       y="688.1"
       width="120.5"
       height="36"
       rx="20"
       ry="20"
       id="rect232" />
    <rect
       style="fill: none; fill-opacity:0; stroke-width: 2; stroke: #000000"
       x="250.25"
       y="688.1"
       width="120.5"
       height="36"
       rx="20"
       ry="20"
       id="rect234" />
    <text
       style="fill: #000000;text-anchor:middle;font-size:12.8;font-family:sanserif;font-style:normal;font-weight:normal"
       x="310.5"
       y="710"
       id="text236">
      <tspan
         x="310.5"
         y="710"
         id="tspan238">go into this test</tspan>
    </text>
  </g>
  <g
     id="g240">
    <rect
       style="fill: #e5e5e5"
       x="113.45"
       y="688.5"
       width="88.8"
       height="52"
       rx="20"
       ry="20"
       id="rect242" />
    <rect
       style="fill: none; fill-opacity:0; stroke-width: 2; stroke: #000000"
       x="113.45"
       y="688.5"
       width="88.8"
       height="52"
       rx="20"
       ry="20"
       id="rect244" />
    <text
       style="fill: #000000;text-anchor:middle;font-size:12.8;font-family:sanserif;font-style:normal;font-weight:normal"
       x="157.85"
       y="710.4"
       id="text246">
      <tspan
         x="157.85"
         y="710.4"
         id="tspan248">create and</tspan>
      <tspan
         x="157.85"
         y="726.4"
         id="tspan250">continue</tspan>
    </text>
  </g>
  <g
     id="g252">
    <path
       style="fill: none; fill-opacity:0; stroke-width: 2; stroke: #000000"
       d="M 113.45 714.5 C 63,702 72,625 176.314,625.64"
       id="path254" />
    <polygon
       style="fill: #000000"
       points="183.814,625.686 173.783,630.625 176.314,625.64 173.845,620.625 "
       id="polygon256" />
    <polygon
       style="fill: none; fill-opacity:0; stroke-width: 2; stroke: #000000"
       points="183.814,625.686 173.783,630.625 176.314,625.64 173.845,620.625 "
       id="polygon258" />
  </g>
  <g
     id="g260">
    <rect
       style="fill: #ffebca"
       x="906.7"
       y="640.35"
       width="80"
       height="36"
       rx="20"
       ry="20"
       id="rect262" />
    <rect
       style="fill: none; fill-opacity:0; stroke-width: 2; stroke: #000000"
       x="906.7"
       y="640.35"
       width="80"
       height="36"
       rx="20"
       ry="20"
       id="rect264" />
    <text
       style="fill: #000000;text-anchor:middle;font-size:12.8;font-family:sanserif;font-style:normal;font-weight:normal"
       x="946.7"
       y="662.25"
       id="text266">
      <tspan
         x="946.7"
         y="662.25"
         id="tspan268">modify</tspan>
    </text>
  </g>
  <g
     id="g270">
    <rect
       style="fill: #ffebca"
       x="890.25"
       y="709.1"
       width="113.75"
       height="36"
       rx="20"
       ry="20"
       id="rect272" />
    <rect
       style="fill: none; fill-opacity:0; stroke-width: 2; stroke: #000000"
       x="890.25"
       y="709.1"
       width="113.75"
       height="36"
       rx="20"
       ry="20"
       id="rect274" />
    <text
       style="fill: #000000;text-anchor:middle;font-size:12.8;font-family:sanserif;font-style:normal;font-weight:normal"
       x="947.125"
       y="731"
       id="text276">
      <tspan
         x="947.125"
         y="731"
         id="tspan278">complete form</tspan>
    </text>
  </g>
  <g
     id="g280">
    <polyline
       style="fill: none; fill-opacity:0; stroke-width: 2; stroke: #000000"
       points="886.875,600.376 886.875,620.501 822,620.501 822,630.89 "
       id="polyline282" />
    <polygon
       style="fill: #000000"
       points="822,638.39 817,628.39 822,630.89 827,628.39 "
       id="polygon284" />
    <polygon
       style="fill: none; fill-opacity:0; stroke-width: 2; stroke: #000000"
       points="822,638.39 817,628.39 822,630.89 827,628.39 "
       id="polygon286" />
  </g>
  <g
     id="g288">
    <polyline
       style="fill: none; fill-opacity:0; stroke-width: 2; stroke: #000000"
       points="886.875,600.376 886.875,620.363 946.7,620.363 946.7,630.614 "
       id="polyline290" />
    <polygon
       style="fill: #000000"
       points="946.7,638.114 941.7,628.114 946.7,630.614 951.7,628.114 "
       id="polygon292" />
    <polygon
       style="fill: none; fill-opacity:0; stroke-width: 2; stroke: #000000"
       points="946.7,638.114 941.7,628.114 946.7,630.614 951.7,628.114 "
       id="polygon294" />
  </g>
  <g
     id="g296">
    <line
       style="fill: none; fill-opacity:0; stroke-width: 2; stroke: #000000"
       x1="946.7"
       y1="676.35"
       x2="946.998"
       y2="699.365"
       id="line298" />
    <polygon
       style="fill: #000000"
       points="947.095,706.864 941.966,696.93 946.998,699.365 951.965,696.8 "
       id="polygon300" />
    <polygon
       style="fill: none; fill-opacity:0; stroke-width: 2; stroke: #000000"
       points="947.095,706.864 941.966,696.93 946.998,699.365 951.965,696.8 "
       id="polygon302" />
  </g>
  <g
     id="g304">
    <line
       style="fill: none; fill-opacity:0; stroke-width: 2; stroke: #000000"
       x1="242.324"
       y1="561.378"
       x2="242.798"
       y2="597.965"
       id="line306" />
    <polygon
       style="fill: #000000"
       points="242.895,605.464 237.766,595.53 242.798,597.965 247.765,595.4 "
       id="polygon308" />
    <polygon
       style="fill: none; fill-opacity:0; stroke-width: 2; stroke: #000000"
       points="242.895,605.464 237.766,595.53 242.798,597.965 247.765,595.4 "
       id="polygon310" />
  </g>
  <g
     id="g312">
    <polyline
       style="fill: none; fill-opacity:0; stroke-width: 2; stroke: #000000"
       points="242.925,643.7 242.925,666.1 157.85,666.1 157.85,678.764 "
       id="polyline314" />
    <polygon
       style="fill: #000000"
       points="157.85,686.264 152.85,676.264 157.85,678.764 162.85,676.264 "
       id="polygon316" />
    <polygon
       style="fill: none; fill-opacity:0; stroke-width: 2; stroke: #000000"
       points="157.85,686.264 152.85,676.264 157.85,678.764 162.85,676.264 "
       id="polygon318" />
  </g>
  <g
     id="g320">
    <polyline
       style="fill: none; fill-opacity:0; stroke-width: 2; stroke: #000000"
       points="242.925,643.7 242.925,665.9 310.5,665.9 310.5,678.364 "
       id="polyline322" />
    <polygon
       style="fill: #000000"
       points="310.5,685.864 305.5,675.864 310.5,678.364 315.5,675.864 "
       id="polygon324" />
    <polygon
       style="fill: none; fill-opacity:0; stroke-width: 2; stroke: #000000"
       points="310.5,685.864 305.5,675.864 310.5,678.364 315.5,675.864 "
       id="polygon326" />
  </g>
  <g
     id="g328">
    <ellipse
       style="fill: #ffffff"
       cx="740.574"
       cy="818.35"
       rx="6"
       ry="6"
       id="ellipse330" />
    <ellipse
       style="fill: none; fill-opacity:0; stroke-width: 2; stroke: #000000"
       cx="740.574"
       cy="818.35"
       rx="6"
       ry="6"
       id="ellipse332" />
    <line
       style="fill: none; fill-opacity:0; stroke-width: 2; stroke: #000000"
       x1="716.574"
       y1="830.35"
       x2="764.574"
       y2="830.35"
       id="line334" />
    <line
       style="fill: none; fill-opacity:0; stroke-width: 2; stroke: #000000"
       x1="740.574"
       y1="824.35"
       x2="740.574"
       y2="854.35"
       id="line336" />
    <line
       style="fill: none; fill-opacity:0; stroke-width: 2; stroke: #000000"
       x1="740.574"
       y1="854.35"
       x2="716.574"
       y2="880.35"
       id="line338" />
    <line
       style="fill: none; fill-opacity:0; stroke-width: 2; stroke: #000000"
       x1="740.574"
       y1="854.35"
       x2="764.574"
       y2="880.35"
       id="line340" />
    <text
       style="fill: #000000;text-anchor:middle;font-size:12.8;font-family:sanserif;font-style:normal;font-weight:normal"
       x="740.574"
       y="904.25"
       id="text342">
      <tspan
         x="740.574"
         y="904.25"
         id="tspan344">Manager</tspan>
    </text>
  </g>
  <g
     id="g346">
    <path
       style="fill: none; fill-opacity:0; stroke-width: 2; stroke-dasharray: 8; stroke: #000000"
       d="M 641.9,785.55 A 73.5081,73.5081 0 0 0 705.92,853.755"
       id="path348" />
    <polygon
       style="fill: #000000"
       points="713.338,854.36 703.36,859.403 705.838,854.392 703.316,849.403 "
       id="polygon350" />
    <polygon
       style="fill: none; fill-opacity:0; stroke-width: 2; stroke: #000000"
       points="713.338,854.36 703.36,859.403 705.838,854.392 703.316,849.403 "
       id="polygon352" />
  </g>
  <g
     id="g354">
    <path
       style="fill: none; fill-opacity:0; stroke-width: 2; stroke-dasharray: 8; stroke: #000000"
       d="M 773.226,848.36 A 137.102,137.102 0 0 0 822,746.726"
       id="path356" />
    <polygon
       style="fill: #000000"
       points="767.382,853.035 772.529,843.11 773.448,848.624 778.411,851.197 "
       id="polygon358" />
    <polygon
       style="fill: none; fill-opacity:0; stroke-width: 2; stroke: #000000"
       points="767.382,853.035 772.529,843.11 773.448,848.624 778.411,851.197 "
       id="polygon360" />
  </g>
  <g
     id="g362">
    <rect
       style="fill: #bbffb4"
       x="700.1"
       y="942.95"
       width="80"
       height="52"
       rx="20"
       ry="20"
       id="rect364" />
    <rect
       style="fill: none; fill-opacity:0; stroke-width: 2; stroke: #000000"
       x="700.1"
       y="942.95"
       width="80"
       height="52"
       rx="20"
       ry="20"
       id="rect366" />
    <text
       style="fill: #000000;text-anchor:middle;font-size:12.8;font-family:sanserif;font-style:normal;font-weight:normal"
       x="740.1"
       y="964.85"
       id="text368">
      <tspan
         x="740.1"
         y="964.85"
         id="tspan370">validate</tspan>
      <tspan
         x="740.1"
         y="980.85"
         id="tspan372">delete</tspan>
    </text>
  </g>
  <g
     id="g374">
    <line
       style="fill: none; fill-opacity:0; stroke-width: 2; stroke: #000000"
       x1="740.574"
       y1="908.35"
       x2="740.233"
       y2="933.215"
       id="line376" />
    <polygon
       style="fill: #000000"
       points="740.131,940.714 735.268,930.647 740.233,933.215 745.267,930.784 "
       id="polygon378" />
    <polygon
       style="fill: none; fill-opacity:0; stroke-width: 2; stroke: #000000"
       points="740.131,940.714 735.268,930.647 740.233,933.215 745.267,930.784 "
       id="polygon380" />
  </g>
</svg>
