<?xml version="1.0" encoding="UTF-8" standalone="no"?>
<svg
   xmlns:dc="http://purl.org/dc/elements/1.1/"
   xmlns:cc="http://creativecommons.org/ns#"
   xmlns:rdf="http://www.w3.org/1999/02/22-rdf-syntax-ns#"
   xmlns:svg="http://www.w3.org/2000/svg"
   xmlns="http://www.w3.org/2000/svg"
   xmlns:sodipodi="http://sodipodi.sourceforge.net/DTD/sodipodi-0.dtd"
   xmlns:inkscape="http://www.inkscape.org/namespaces/inkscape"
   width="34cm"
   height="29cm"
   viewBox="214 258 670 564"
   id="svg2"
   version="1.1"
   inkscape:version="0.48.1 r9760"
   sodipodi:docname="US10.svg"
   inkscape:export-filename="../imgs/US10.png"
   inkscape:export-xdpi="100"
   inkscape:export-ydpi="100">
  <metadata
     id="metadata252">
    <rdf:RDF>
      <cc:Work
         rdf:about="">
        <dc:format>image/svg+xml</dc:format>
        <dc:type
           rdf:resource="http://purl.org/dc/dcmitype/StillImage" />
        <dc:title></dc:title>
      </cc:Work>
    </rdf:RDF>
  </metadata>
  <defs
     id="defs250" />
  <sodipodi:namedview
     pagecolor="#ffffff"
     bordercolor="#666666"
     borderopacity="1"
     objecttolerance="10"
     gridtolerance="10"
     guidetolerance="10"
     inkscape:pageopacity="0"
     inkscape:pageshadow="2"
     inkscape:window-width="640"
     inkscape:window-height="480"
     id="namedview248"
     showgrid="false"
     inkscape:zoom="0.25594635"
     inkscape:cx="602.36218"
     inkscape:cy="513.77954"
     inkscape:window-x="0"
     inkscape:window-y="25"
     inkscape:window-maximized="0"
     inkscape:current-layer="svg2" />
  <g
     id="g4">
    <rect
       style="fill: #ffffff"
       x="513.174"
       y="400.9"
       width="80"
       height="36"
       rx="20"
       ry="20"
       id="rect6" />
    <rect
       style="fill: none; fill-opacity:0; stroke-width: 2; stroke: #000000"
       x="513.174"
       y="400.9"
       width="80"
       height="36"
       rx="20"
       ry="20"
       id="rect8" />
    <text
       style="fill: #000000;text-anchor:middle;font-size:12.8;font-family:sanserif;font-style:normal;font-weight:normal"
       x="553.174"
       y="422.8"
       id="text10">
      <tspan
         x="553.174"
         y="422.8"
         id="tspan12">loggin</tspan>
    </text>
  </g>
  <g
     id="g14">
    <ellipse
       style="fill: #ffffff"
       cx="553.174"
       cy="277.55"
       rx="6"
       ry="6"
       id="ellipse16" />
    <ellipse
       style="fill: none; fill-opacity:0; stroke-width: 2; stroke: #000000"
       cx="553.174"
       cy="277.55"
       rx="6"
       ry="6"
       id="ellipse18" />
    <line
       style="fill: none; fill-opacity:0; stroke-width: 2; stroke: #000000"
       x1="529.174"
       y1="289.55"
       x2="577.174"
       y2="289.55"
       id="line20" />
    <line
       style="fill: none; fill-opacity:0; stroke-width: 2; stroke: #000000"
       x1="553.174"
       y1="283.55"
       x2="553.174"
       y2="313.55"
       id="line22" />
    <line
       style="fill: none; fill-opacity:0; stroke-width: 2; stroke: #000000"
       x1="553.174"
       y1="313.55"
       x2="529.174"
       y2="339.55"
       id="line24" />
    <line
       style="fill: none; fill-opacity:0; stroke-width: 2; stroke: #000000"
       x1="553.174"
       y1="313.55"
       x2="577.174"
       y2="339.55"
       id="line26" />
    <text
       style="fill: #000000;text-anchor:middle;font-size:12.8;font-family:sanserif;font-style:normal;font-weight:normal"
       x="553.174"
       y="363.45"
       id="text28">
      <tspan
         x="553.174"
         y="363.45"
         id="tspan30">Member</tspan>
    </text>
  </g>
  <g
     id="g32">
    <line
       style="fill: none; fill-opacity:0; stroke-width: 2; stroke: #000000"
       x1="553.174"
       y1="368.554"
       x2="553.174"
       y2="391.164"
       id="line34" />
    <polygon
       style="fill: #000000"
       points="553.174,398.664 548.174,388.664 553.174,391.164 558.174,388.664 "
       id="polygon36" />
    <polygon
       style="fill: none; fill-opacity:0; stroke-width: 2; stroke: #000000"
       points="553.174,398.664 548.174,388.664 553.174,391.164 558.174,388.664 "
       id="polygon38" />
  </g>
  <g
     id="g40">
    <rect
       style="fill: #fffcb4"
       x="491.2"
       y="473.55"
       width="124.95"
       height="36"
       rx="20"
       ry="20"
       id="rect42" />
    <rect
       style="fill: none; fill-opacity:0; stroke-width: 2; stroke: #000000"
       x="491.2"
       y="473.55"
       width="124.95"
       height="36"
       rx="20"
       ry="20"
       id="rect44" />
    <text
       style="fill: #000000;text-anchor:middle;font-size:12.8;font-family:sanserif;font-style:normal;font-weight:normal"
       x="553.675"
       y="495.45"
       id="text46">
      <tspan
         x="553.675"
         y="495.45"
         id="tspan48">go into a project</tspan>
    </text>
  </g>
  <g
     id="g50">
    <line
       style="fill: none; fill-opacity:0; stroke-width: 2; stroke: #000000"
       x1="553.174"
       y1="436.9"
       x2="553.543"
       y2="463.815"
       id="line52" />
    <polygon
       style="fill: #000000"
       points="553.645,471.314 548.509,461.384 553.543,463.815 558.508,461.247 "
       id="polygon54" />
    <polygon
       style="fill: none; fill-opacity:0; stroke-width: 2; stroke: #000000"
       points="553.645,471.314 548.509,461.384 553.543,463.815 558.508,461.247 "
       id="polygon56" />
  </g>
  <g
     id="g58">
    <rect
       style="fill: #fffcb4"
       x="481.6"
       y="537.35"
       width="143.4"
       height="36"
       rx="20"
       ry="20"
       id="rect60" />
    <rect
       style="fill: none; fill-opacity:0; stroke-width: 2; stroke: #000000"
       x="481.6"
       y="537.35"
       width="143.4"
       height="36"
       rx="20"
       ry="20"
       id="rect62" />
    <text
       style="fill: #000000;text-anchor:middle;font-size:12.8;font-family:sanserif;font-style:normal;font-weight:normal"
       x="553.3"
       y="559.25"
       id="text64">
      <tspan
         x="553.3"
         y="559.25"
         id="tspan66">go into graph chart</tspan>
    </text>
  </g>
  <g
     id="g68">
    <line
       style="fill: none; fill-opacity:0; stroke-width: 2; stroke: #000000"
       x1="553.676"
       y1="509.55"
       x2="553.432"
       y2="527.615"
       id="line70" />
    <polygon
       style="fill: #000000"
       points="553.33,535.114 548.466,525.047 553.432,527.615 558.465,525.183 "
       id="polygon72" />
    <polygon
       style="fill: none; fill-opacity:0; stroke-width: 2; stroke: #000000"
       points="553.33,535.114 548.466,525.047 553.432,527.615 558.465,525.183 "
       id="polygon74" />
  </g>
  <g
     id="g76">
    <rect
       style="fill: #fffcb4"
       x="329"
       y="622.15"
       width="95.35"
       height="36"
       rx="20"
       ry="20"
       id="rect78" />
    <rect
       style="fill: none; fill-opacity:0; stroke-width: 2; stroke: #000000"
       x="329"
       y="622.15"
       width="95.35"
       height="36"
       rx="20"
       ry="20"
       id="rect80" />
    <text
       style="fill: #000000;text-anchor:middle;font-size:12.8;font-family:sanserif;font-style:normal;font-weight:normal"
       x="376.675"
       y="644.05"
       id="text82">
      <tspan
         x="376.675"
         y="644.05"
         id="tspan84">select chart</tspan>
    </text>
  </g>
  <g
     id="g86">
    <polyline
       style="fill: none; fill-opacity:0; stroke-width: 2; stroke: #000000"
       points="553.3,573.35 553.3,597.75 376.675,597.75 376.675,612.414 "
       id="polyline88" />
    <polygon
       style="fill: #000000"
       points="376.675,619.914 371.675,609.914 376.675,612.414 381.675,609.914 "
       id="polygon90" />
    <polygon
       style="fill: none; fill-opacity:0; stroke-width: 2; stroke: #000000"
       points="376.675,619.914 371.675,609.914 376.675,612.414 381.675,609.914 "
       id="polygon92" />
  </g>
  <g
     id="g94">
    <rect
       style="fill: #e5e5e5"
       x="679.4"
       y="622.95"
       width="97.95"
       height="36"
       rx="20"
       ry="20"
       id="rect96" />
    <rect
       style="fill: none; fill-opacity:0; stroke-width: 2; stroke: #000000"
       x="679.4"
       y="622.95"
       width="97.95"
       height="36"
       rx="20"
       ry="20"
       id="rect98" />
    <text
       style="fill: #000000;text-anchor:middle;font-size:12.8;font-family:sanserif;font-style:normal;font-weight:normal"
       x="728.375"
       y="644.85"
       id="text100">
      <tspan
         x="728.375"
         y="644.85"
         id="tspan102">create chart</tspan>
    </text>
  </g>
  <g
     id="g104">
    <rect
       style="fill: #fffcb4"
       x="325.876"
       y="708.15"
       width="101.2"
       height="36"
       rx="20"
       ry="20"
       id="rect106" />
    <rect
       style="fill: none; fill-opacity:0; stroke-width: 2; stroke: #000000"
       x="325.876"
       y="708.15"
       width="101.2"
       height="36"
       rx="20"
       ry="20"
       id="rect108" />
    <text
       style="fill: #000000;text-anchor:middle;font-size:12.8;font-family:sanserif;font-style:normal;font-weight:normal"
       x="376.476"
       y="730.05"
       id="text110">
      <tspan
         x="376.476"
         y="730.05"
         id="tspan112">modify chart</tspan>
    </text>
  </g>
  <g
     id="g114">
    <rect
       style="fill: #fffcb4"
       x="447.2"
       y="708.15"
       width="97.7"
       height="36"
       rx="20"
       ry="20"
       id="rect116" />
    <rect
       style="fill: none; fill-opacity:0; stroke-width: 2; stroke: #000000"
       x="447.2"
       y="708.15"
       width="97.7"
       height="36"
       rx="20"
       ry="20"
       id="rect118" />
    <text
       style="fill: #000000;text-anchor:middle;font-size:12.8;font-family:sanserif;font-style:normal;font-weight:normal"
       x="496.05"
       y="730.05"
       id="text120">
      <tspan
         x="496.05"
         y="730.05"
         id="tspan122">delete chart</tspan>
    </text>
  </g>
  <g
     id="g124">
    <rect
       style="fill: #fffcb4"
       x="215.4"
       y="708.15"
       width="90.35"
       height="36"
       rx="20"
       ry="20"
       id="rect126" />
    <rect
       style="fill: none; fill-opacity:0; stroke-width: 2; stroke: #000000"
       x="215.4"
       y="708.15"
       width="90.35"
       height="36"
       rx="20"
       ry="20"
       id="rect128" />
    <text
       style="fill: #000000;text-anchor:middle;font-size:12.8;font-family:sanserif;font-style:normal;font-weight:normal"
       x="260.575"
       y="730.05"
       id="text130">
      <tspan
         x="260.575"
         y="730.05"
         id="tspan132">show chart</tspan>
    </text>
  </g>
  <g
     id="g134">
    <line
       style="fill: none; fill-opacity:0; stroke-width: 2; stroke: #000000"
       x1="376.674"
       y1="658.15"
       x2="376.515"
       y2="698.414"
       id="line136" />
    <polygon
       style="fill: #000000"
       points="376.485,705.914 371.524,695.894 376.515,698.414 381.524,695.934 "
       id="polygon138" />
    <polygon
       style="fill: none; fill-opacity:0; stroke-width: 2; stroke: #000000"
       points="376.485,705.914 371.524,695.894 376.515,698.414 381.524,695.934 "
       id="polygon140" />
  </g>
  <g
     id="g142">
    <polyline
       style="fill: none; fill-opacity:0; stroke-width: 2; stroke: #000000"
       points="376.675,658.15 376.675,683.15 260.575,683.15 260.575,698.414 "
       id="polyline144" />
    <polygon
       style="fill: #000000"
       points="260.575,705.914 255.575,695.914 260.575,698.414 265.575,695.914 "
       id="polygon146" />
    <polygon
       style="fill: none; fill-opacity:0; stroke-width: 2; stroke: #000000"
       points="260.575,705.914 255.575,695.914 260.575,698.414 265.575,695.914 "
       id="polygon148" />
  </g>
  <g
     id="g150">
    <polyline
       style="fill: none; fill-opacity:0; stroke-width: 2; stroke: #000000"
       points="376.675,658.15 376.675,683.15 496.05,683.15 496.05,698.414 "
       id="polyline152" />
    <polygon
       style="fill: #000000"
       points="496.05,705.914 491.05,695.914 496.05,698.414 501.05,695.914 "
       id="polygon154" />
    <polygon
       style="fill: none; fill-opacity:0; stroke-width: 2; stroke: #000000"
       points="496.05,705.914 491.05,695.914 496.05,698.414 501.05,695.914 "
       id="polygon156" />
  </g>
  <g
     id="g158">
    <polyline
       style="fill: none; fill-opacity:0; stroke-width: 2; stroke: #000000"
       points="553.3,573.35 553.3,598.15 728.375,598.15 728.375,613.214 "
       id="polyline160" />
    <polygon
       style="fill: #000000"
       points="728.375,620.714 723.375,610.714 728.375,613.214 733.375,610.714 "
       id="polygon162" />
    <polygon
       style="fill: none; fill-opacity:0; stroke-width: 2; stroke: #000000"
       points="728.375,620.714 723.375,610.714 728.375,613.214 733.375,610.714 "
       id="polygon164" />
  </g>
  <g
     id="g166">
    <rect
       style="fill: #e5e5e5"
       x="671.1"
       y="690.95"
       width="113.75"
       height="36"
       rx="20"
       ry="20"
       id="rect168" />
    <rect
       style="fill: none; fill-opacity:0; stroke-width: 2; stroke: #000000"
       x="671.1"
       y="690.95"
       width="113.75"
       height="36"
       rx="20"
       ry="20"
       id="rect170" />
    <text
       style="fill: #000000;text-anchor:middle;font-size:12.8;font-family:sanserif;font-style:normal;font-weight:normal"
       x="727.975"
       y="712.85"
       id="text172">
      <tspan
         x="727.975"
         y="712.85"
         id="tspan174">complete form</tspan>
    </text>
  </g>
  <g
     id="g176">
    <rect
       style="fill: #e5e5e5"
       x="613.5"
       y="768.75"
       width="114.3"
       height="36"
       rx="20"
       ry="20"
       id="rect178" />
    <rect
       style="fill: none; fill-opacity:0; stroke-width: 2; stroke: #000000"
       x="613.5"
       y="768.75"
       width="114.3"
       height="36"
       rx="20"
       ry="20"
       id="rect180" />
    <text
       style="fill: #000000;text-anchor:middle;font-size:12.8;font-family:sanserif;font-style:normal;font-weight:normal"
       x="670.65"
       y="790.65"
       id="text182">
      <tspan
         x="670.65"
         y="790.65"
         id="tspan184">show this form</tspan>
    </text>
  </g>
  <g
     id="g186">
    <rect
       style="fill: #e5e5e5"
       x="752.9"
       y="769.05"
       width="88.8"
       height="52"
       rx="20"
       ry="20"
       id="rect188" />
    <rect
       style="fill: none; fill-opacity:0; stroke-width: 2; stroke: #000000"
       x="752.9"
       y="769.05"
       width="88.8"
       height="52"
       rx="20"
       ry="20"
       id="rect190" />
    <text
       style="fill: #000000;text-anchor:middle;font-size:12.8;font-family:sanserif;font-style:normal;font-weight:normal"
       x="797.3"
       y="790.95"
       id="text192">
      <tspan
         x="797.3"
         y="790.95"
         id="tspan194">create and</tspan>
      <tspan
         x="797.3"
         y="806.95"
         id="tspan196">continue</tspan>
    </text>
  </g>
  <g
     id="g198">
    <line
       style="fill: none; fill-opacity:0; stroke-width: 2; stroke: #000000"
       x1="728.374"
       y1="658.95"
       x2="728.097"
       y2="681.215"
       id="line200" />
    <polygon
       style="fill: #000000"
       points="728.004,688.714 723.129,678.653 728.097,681.215 733.128,678.777 "
       id="polygon202" />
    <polygon
       style="fill: none; fill-opacity:0; stroke-width: 2; stroke: #000000"
       points="728.004,688.714 723.129,678.653 728.097,681.215 733.128,678.777 "
       id="polygon204" />
  </g>
  <g
     id="g206">
    <polyline
       style="fill: none; fill-opacity:0; stroke-width: 2; stroke: #000000"
       points="727.975,726.95 727.975,748 797.3,748 797.3,759.314 "
       id="polyline208" />
    <polygon
       style="fill: #000000"
       points="797.3,766.814 792.3,756.814 797.3,759.314 802.3,756.814 "
       id="polygon210" />
    <polygon
       style="fill: none; fill-opacity:0; stroke-width: 2; stroke: #000000"
       points="797.3,766.814 792.3,756.814 797.3,759.314 802.3,756.814 "
       id="polygon212" />
  </g>
  <g
     id="g214">
    <polyline
       style="fill: none; fill-opacity:0; stroke-width: 2; stroke: #000000"
       points="727.975,726.95 727.975,747.85 670.65,747.85 670.65,759.014 "
       id="polyline216" />
    <polygon
       style="fill: #000000"
       points="670.65,766.514 665.65,756.514 670.65,759.014 675.65,756.514 "
       id="polygon218" />
    <polygon
       style="fill: none; fill-opacity:0; stroke-width: 2; stroke: #000000"
       points="670.65,766.514 665.65,756.514 670.65,759.014 675.65,756.514 "
       id="polygon220" />
  </g>
  <g
     id="g222">
    <path
       style="fill: none; fill-opacity:0; stroke-width: 2; stroke: #000000"
       d="M 841.7 795.05 C 903.802,794.75 901.052,710 794.586,709.038"
       id="path224" />
    <polygon
       style="fill: #000000"
       points="787.086,708.97 797.131,704.061 794.586,709.038 797.04,714.06 "
       id="polygon226" />
    <polygon
       style="fill: none; fill-opacity:0; stroke-width: 2; stroke: #000000"
       points="787.086,708.97 797.131,704.061 794.586,709.038 797.04,714.06 "
       id="polygon228" />
  </g>
  <g
     id="g230">
    <rect
       style="fill: #fffcb4"
       x="456.35"
       y="777.95"
       width="80"
       height="36"
       rx="20"
       ry="20"
       id="rect232" />
    <rect
       style="fill: none; fill-opacity:0; stroke-width: 2; stroke: #000000"
       x="456.35"
       y="777.95"
       width="80"
       height="36"
       rx="20"
       ry="20"
       id="rect234" />
    <text
       style="fill: #000000;text-anchor:middle;font-size:12.8;font-family:sanserif;font-style:normal;font-weight:normal"
       x="496.35"
       y="799.85"
       id="text236">
      <tspan
         x="496.35"
         y="799.85"
         id="tspan238">validate</tspan>
    </text>
  </g>
  <g
     id="g240">
    <line
       style="fill: none; fill-opacity:0; stroke-width: 2; stroke: #000000"
       x1="496.05"
       y1="744.15"
       x2="496.264"
       y2="768.214"
       id="line242" />
    <polygon
       style="fill: #000000"
       points="496.33,775.714 491.242,765.759 496.264,768.214 501.241,765.67 "
       id="polygon244" />
    <polygon
       style="fill: none; fill-opacity:0; stroke-width: 2; stroke: #000000"
       points="496.33,775.714 491.242,765.759 496.264,768.214 501.241,765.67 "
       id="polygon246" />
  </g>
</svg>
