<?xml version="1.0" encoding="UTF-8" standalone="no"?>
<svg
   xmlns:dc="http://purl.org/dc/elements/1.1/"
   xmlns:cc="http://creativecommons.org/ns#"
   xmlns:rdf="http://www.w3.org/1999/02/22-rdf-syntax-ns#"
   xmlns:svg="http://www.w3.org/2000/svg"
   xmlns="http://www.w3.org/2000/svg"
   xmlns:sodipodi="http://sodipodi.sourceforge.net/DTD/sodipodi-0.dtd"
   xmlns:inkscape="http://www.inkscape.org/namespaces/inkscape"
   width="24cm"
   height="28cm"
   viewBox="102 168 463 560"
   id="svg2"
   version="1.1"
   inkscape:version="0.48.1 r9760"
   sodipodi:docname="US17.svg"
   inkscape:export-filename="../imgs/US17.png"
   inkscape:export-xdpi="100"
   inkscape:export-ydpi="100">
  <metadata
     id="metadata188">
    <rdf:RDF>
      <cc:Work
         rdf:about="">
        <dc:format>image/svg+xml</dc:format>
        <dc:type
           rdf:resource="http://purl.org/dc/dcmitype/StillImage" />
        <dc:title></dc:title>
      </cc:Work>
    </rdf:RDF>
  </metadata>
  <defs
     id="defs186" />
  <sodipodi:namedview
     pagecolor="#ffffff"
     bordercolor="#666666"
     borderopacity="1"
     objecttolerance="10"
     gridtolerance="10"
     guidetolerance="10"
     inkscape:pageopacity="0"
     inkscape:pageshadow="2"
     inkscape:window-width="640"
     inkscape:window-height="480"
     id="namedview184"
     showgrid="false"
     inkscape:zoom="0.2650873"
     inkscape:cx="425.19684"
     inkscape:cy="496.06299"
     inkscape:window-x="0"
     inkscape:window-y="25"
     inkscape:window-maximized="0"
     inkscape:current-layer="svg2" />
  <g
     id="g4">
    <rect
       style="fill: #ffffff"
       x="290.912"
       y="326.9"
       width="80"
       height="36"
       rx="20"
       ry="20"
       id="rect6" />
    <rect
       style="fill: none; fill-opacity:0; stroke-width: 2; stroke: #000000"
       x="290.912"
       y="326.9"
       width="80"
       height="36"
       rx="20"
       ry="20"
       id="rect8" />
    <text
       style="fill: #000000;text-anchor:middle;font-size:12.8;font-family:sanserif;font-style:normal;font-weight:normal"
       x="330.912"
       y="348.8"
       id="text10">
      <tspan
         x="330.912"
         y="348.8"
         id="tspan12">loggin</tspan>
    </text>
  </g>
  <g
     id="g14">
    <ellipse
       style="fill: #ffffff"
       cx="330.912"
       cy="187.55"
       rx="6"
       ry="6"
       id="ellipse16" />
    <ellipse
       style="fill: none; fill-opacity:0; stroke-width: 2; stroke: #000000"
       cx="330.912"
       cy="187.55"
       rx="6"
       ry="6"
       id="ellipse18" />
    <line
       style="fill: none; fill-opacity:0; stroke-width: 2; stroke: #000000"
       x1="306.912"
       y1="199.55"
       x2="354.912"
       y2="199.55"
       id="line20" />
    <line
       style="fill: none; fill-opacity:0; stroke-width: 2; stroke: #000000"
       x1="330.912"
       y1="193.55"
       x2="330.912"
       y2="223.55"
       id="line22" />
    <line
       style="fill: none; fill-opacity:0; stroke-width: 2; stroke: #000000"
       x1="330.912"
       y1="223.55"
       x2="306.912"
       y2="249.55"
       id="line24" />
    <line
       style="fill: none; fill-opacity:0; stroke-width: 2; stroke: #000000"
       x1="330.912"
       y1="223.55"
       x2="354.912"
       y2="249.55"
       id="line26" />
    <text
       style="fill: #000000;text-anchor:middle;font-size:12.8;font-family:sanserif;font-style:normal;font-weight:normal"
       x="330.912"
       y="273.45"
       id="text28">
      <tspan
         x="330.912"
         y="273.45"
         id="tspan30">Administrator</tspan>
    </text>
  </g>
  <g
     id="g32">
    <line
       style="fill: none; fill-opacity:0; stroke-width: 2; stroke: #000000"
       x1="330.912"
       y1="277.55"
       x2="330.912"
       y2="317.164"
       id="line34" />
    <polygon
       style="fill: #000000"
       points="330.912,324.664 325.912,314.664 330.912,317.164 335.912,314.664 "
       id="polygon36" />
    <polygon
       style="fill: none; fill-opacity:0; stroke-width: 2; stroke: #000000"
       points="330.912,324.664 325.912,314.664 330.912,317.164 335.912,314.664 "
       id="polygon38" />
  </g>
  <g
     id="g40">
    <rect
       style="fill: #ffffff"
       x="242.212"
       y="397.95"
       width="177.4"
       height="36"
       rx="20"
       ry="20"
       id="rect42" />
    <rect
       style="fill: none; fill-opacity:0; stroke-width: 2; stroke: #000000"
       x="242.212"
       y="397.95"
       width="177.4"
       height="36"
       rx="20"
       ry="20"
       id="rect44" />
    <text
       style="fill: #000000;text-anchor:middle;font-size:12.8;font-family:sanserif;font-style:normal;font-weight:normal"
       x="330.912"
       y="419.85"
       id="text46">
      <tspan
         x="330.912"
         y="419.85"
         id="tspan48">goto configuraiton panel</tspan>
    </text>
  </g>
  <g
     id="g50">
    <line
       style="fill: none; fill-opacity:0; stroke-width: 2; stroke: #000000"
       x1="330.912"
       y1="362.9"
       x2="330.912"
       y2="388.214"
       id="line52" />
    <polygon
       style="fill: #000000"
       points="330.912,395.714 325.912,385.714 330.912,388.214 335.912,385.714 "
       id="polygon54" />
    <polygon
       style="fill: none; fill-opacity:0; stroke-width: 2; stroke: #000000"
       points="330.912,395.714 325.912,385.714 330.912,388.214 335.912,385.714 "
       id="polygon56" />
  </g>
  <g
     id="g58">
    <rect
       style="fill: #ffffff"
       x="239.038"
       y="473"
       width="185.7"
       height="36"
       rx="20"
       ry="20"
       id="rect60" />
    <rect
       style="fill: none; fill-opacity:0; stroke-width: 2; stroke: #000000"
       x="239.038"
       y="473"
       width="185.7"
       height="36"
       rx="20"
       ry="20"
       id="rect62" />
    <text
       style="fill: #000000;text-anchor:middle;font-size:12.8;font-family:sanserif;font-style:normal;font-weight:normal"
       x="331.888"
       y="494.9"
       id="text64">
      <tspan
         x="331.888"
         y="494.9"
         id="tspan66">goto groups configuraiton</tspan>
    </text>
  </g>
  <g
     id="g68">
    <line
       style="fill: none; fill-opacity:0; stroke-width: 2; stroke: #000000"
       x1="330.912"
       y1="433.95"
       x2="331.645"
       y2="463.267"
       id="line70" />
    <polygon
       style="fill: #000000"
       points="331.832,470.765 326.584,460.893 331.645,463.267 336.581,460.643 "
       id="polygon72" />
    <polygon
       style="fill: none; fill-opacity:0; stroke-width: 2; stroke: #000000"
       points="331.832,470.765 326.584,460.893 331.645,463.267 336.581,460.643 "
       id="polygon74" />
  </g>
  <g
     id="g76">
    <rect
       style="fill: #e5e5e5"
       x="117.277"
       y="595.388"
       width="85.4"
       height="36"
       rx="20"
       ry="20"
       id="rect78" />
    <rect
       style="fill: none; fill-opacity:0; stroke-width: 2; stroke: #000000"
       x="117.277"
       y="595.388"
       width="85.4"
       height="36"
       rx="20"
       ry="20"
       id="rect80" />
    <text
       style="fill: #000000;text-anchor:middle;font-size:12.8;font-family:sanserif;font-style:normal;font-weight:normal"
       x="159.977"
       y="617.288"
       id="text82">
      <tspan
         x="159.977"
         y="617.288"
         id="tspan84">add group</tspan>
    </text>
  </g>
  <g
     id="g86">
    <polyline
       style="fill: none; fill-opacity:0; stroke-width: 2; stroke: #000000"
       points="331.888,509 331.888,552.194 159.977,552.194 159.977,585.652 "
       id="polyline88" />
    <polygon
       style="fill: #000000"
       points="159.977,593.152 154.977,583.152 159.977,585.652 164.977,583.152 "
       id="polygon90" />
    <polygon
       style="fill: none; fill-opacity:0; stroke-width: 2; stroke: #000000"
       points="159.977,593.152 154.977,583.152 159.977,585.652 164.977,583.152 "
       id="polygon92" />
  </g>
  <g
     id="g94">
    <rect
       style="fill: #fffcb4"
       x="279.988"
       y="595.388"
       width="105.15"
       height="36"
       rx="20"
       ry="20"
       id="rect96" />
    <rect
       style="fill: none; fill-opacity:0; stroke-width: 2; stroke: #000000"
       x="279.988"
       y="595.388"
       width="105.15"
       height="36"
       rx="20"
       ry="20"
       id="rect98" />
    <text
       style="fill: #000000;text-anchor:middle;font-size:12.8;font-family:sanserif;font-style:normal;font-weight:normal"
       x="332.563"
       y="617.288"
       id="text100">
      <tspan
         x="332.563"
         y="617.288"
         id="tspan102">modify group</tspan>
    </text>
  </g>
  <g
     id="g104">
    <rect
       style="fill: #ffebca"
       x="462.352"
       y="595.388"
       width="101.65"
       height="36"
       rx="20"
       ry="20"
       id="rect106" />
    <rect
       style="fill: none; fill-opacity:0; stroke-width: 2; stroke: #000000"
       x="462.352"
       y="595.388"
       width="101.65"
       height="36"
       rx="20"
       ry="20"
       id="rect108" />
    <text
       style="fill: #000000;text-anchor:middle;font-size:12.8;font-family:sanserif;font-style:normal;font-weight:normal"
       x="513.177"
       y="617.288"
       id="text110">
      <tspan
         x="513.177"
         y="617.288"
         id="tspan112">delete group</tspan>
    </text>
  </g>
  <g
     id="g114">
    <polyline
       style="fill: none; fill-opacity:0; stroke-width: 2; stroke: #000000"
       points="331.888,509 331.888,552.194 332.563,552.194 332.563,585.652 "
       id="polyline116" />
    <polygon
       style="fill: #000000"
       points="332.563,593.152 327.563,583.152 332.563,585.652 337.563,583.152 "
       id="polygon118" />
    <polygon
       style="fill: none; fill-opacity:0; stroke-width: 2; stroke: #000000"
       points="332.563,593.152 327.563,583.152 332.563,585.652 337.563,583.152 "
       id="polygon120" />
  </g>
  <g
     id="g122">
    <polyline
       style="fill: none; fill-opacity:0; stroke-width: 2; stroke: #000000"
       points="331.888,509 331.888,552.194 513.177,552.194 513.177,585.652 "
       id="polyline124" />
    <polygon
       style="fill: #000000"
       points="513.177,593.152 508.177,583.152 513.177,585.652 518.177,583.152 "
       id="polygon126" />
    <polygon
       style="fill: none; fill-opacity:0; stroke-width: 2; stroke: #000000"
       points="513.177,593.152 508.177,583.152 513.177,585.652 518.177,583.152 "
       id="polygon128" />
  </g>
  <g
     id="g130">
    <rect
       style="fill: #e5e5e5"
       x="103.402"
       y="689.938"
       width="113.75"
       height="36"
       rx="20"
       ry="20"
       id="rect132" />
    <rect
       style="fill: none; fill-opacity:0; stroke-width: 2; stroke: #000000"
       x="103.402"
       y="689.938"
       width="113.75"
       height="36"
       rx="20"
       ry="20"
       id="rect134" />
    <text
       style="fill: #000000;text-anchor:middle;font-size:12.8;font-family:sanserif;font-style:normal;font-weight:normal"
       x="160.277"
       y="711.838"
       id="text136">
      <tspan
         x="160.277"
         y="711.838"
         id="tspan138">complete form</tspan>
    </text>
  </g>
  <g
     id="g140">
    <polyline
       style="fill: none; fill-opacity:0; stroke-width: 2; stroke: #000000"
       points="159.977,631.388 159.977,660.663 160.277,660.663 160.277,680.202 "
       id="polyline142" />
    <polygon
       style="fill: #000000"
       points="160.277,687.702 155.277,677.702 160.277,680.202 165.277,677.702 "
       id="polygon144" />
    <polygon
       style="fill: none; fill-opacity:0; stroke-width: 2; stroke: #000000"
       points="160.277,687.702 155.277,677.702 160.277,680.202 165.277,677.702 "
       id="polygon146" />
  </g>
  <g
     id="g148">
    <rect
       style="fill: #ffebca"
       x="472.528"
       y="679.988"
       width="80"
       height="36"
       rx="20"
       ry="20"
       id="rect150" />
    <rect
       style="fill: none; fill-opacity:0; stroke-width: 2; stroke: #000000"
       x="472.528"
       y="679.988"
       width="80"
       height="36"
       rx="20"
       ry="20"
       id="rect152" />
    <text
       style="fill: #000000;text-anchor:middle;font-size:12.8;font-family:sanserif;font-style:normal;font-weight:normal"
       x="512.528"
       y="701.888"
       id="text154">
      <tspan
         x="512.528"
         y="701.888"
         id="tspan156">validate</tspan>
    </text>
  </g>
  <g
     id="g158">
    <polyline
       style="fill: none; fill-opacity:0; stroke-width: 2; stroke: #000000"
       points="513.177,631.388 513.177,655.688 512.528,655.688 512.528,670.252 "
       id="polyline160" />
    <polygon
       style="fill: #000000"
       points="512.528,677.752 507.528,667.752 512.528,670.252 517.528,667.752 "
       id="polygon162" />
    <polygon
       style="fill: none; fill-opacity:0; stroke-width: 2; stroke: #000000"
       points="512.528,677.752 507.528,667.752 512.528,670.252 517.528,667.752 "
       id="polygon164" />
  </g>
  <g
     id="g166">
    <rect
       style="fill: #fffcb4"
       x="276.038"
       y="691.112"
       width="113.75"
       height="36"
       rx="20"
       ry="20"
       id="rect168" />
    <rect
       style="fill: none; fill-opacity:0; stroke-width: 2; stroke: #000000"
       x="276.038"
       y="691.112"
       width="113.75"
       height="36"
       rx="20"
       ry="20"
       id="rect170" />
    <text
       style="fill: #000000;text-anchor:middle;font-size:12.8;font-family:sanserif;font-style:normal;font-weight:normal"
       x="332.913"
       y="713.012"
       id="text172">
      <tspan
         x="332.913"
         y="713.012"
         id="tspan174">complete form</tspan>
    </text>
  </g>
  <g
     id="g176">
    <polyline
       style="fill: none; fill-opacity:0; stroke-width: 2; stroke: #000000"
       points="332.563,631.388 332.563,661.25 332.913,661.25 332.913,681.376 "
       id="polyline178" />
    <polygon
       style="fill: #000000"
       points="332.913,688.876 327.913,678.876 332.913,681.376 337.913,678.876 "
       id="polygon180" />
    <polygon
       style="fill: none; fill-opacity:0; stroke-width: 2; stroke: #000000"
       points="332.913,688.876 327.913,678.876 332.913,681.376 337.913,678.876 "
       id="polygon182" />
  </g>
</svg>
