<?xml version="1.0" encoding="UTF-8" standalone="no"?>
<svg
   xmlns:dc="http://purl.org/dc/elements/1.1/"
   xmlns:cc="http://creativecommons.org/ns#"
   xmlns:rdf="http://www.w3.org/1999/02/22-rdf-syntax-ns#"
   xmlns:svg="http://www.w3.org/2000/svg"
   xmlns="http://www.w3.org/2000/svg"
   xmlns:sodipodi="http://sodipodi.sourceforge.net/DTD/sodipodi-0.dtd"
   xmlns:inkscape="http://www.inkscape.org/namespaces/inkscape"
   width="30cm"
   height="29cm"
   viewBox="-53 168 599 574"
   id="svg2"
   version="1.1"
   inkscape:version="0.48.1 r9760"
   sodipodi:docname="US19.svg"
   inkscape:export-filename="../imgs/US19.png"
   inkscape:export-xdpi="100"
   inkscape:export-ydpi="100">
  <metadata
     id="metadata218">
    <rdf:RDF>
      <cc:Work
         rdf:about="">
        <dc:format>image/svg+xml</dc:format>
        <dc:type
           rdf:resource="http://purl.org/dc/dcmitype/StillImage" />
        <dc:title></dc:title>
      </cc:Work>
    </rdf:RDF>
  </metadata>
  <defs
     id="defs216" />
  <sodipodi:namedview
     pagecolor="#ffffff"
     bordercolor="#666666"
     borderopacity="1"
     objecttolerance="10"
     gridtolerance="10"
     guidetolerance="10"
     inkscape:pageopacity="0"
     inkscape:pageshadow="2"
     inkscape:window-width="640"
     inkscape:window-height="480"
     id="namedview214"
     showgrid="false"
     inkscape:zoom="0.25594635"
     inkscape:cx="531.49603"
     inkscape:cy="513.77954"
     inkscape:window-x="0"
     inkscape:window-y="25"
     inkscape:window-maximized="0"
     inkscape:current-layer="svg2" />
  <g
     id="g4">
    <rect
       style="fill: #ffffff"
       x="251.888"
       y="313.81"
       width="80"
       height="36"
       rx="20"
       ry="20"
       id="rect6" />
    <rect
       style="fill: none; fill-opacity:0; stroke-width: 2; stroke: #000000"
       x="251.888"
       y="313.81"
       width="80"
       height="36"
       rx="20"
       ry="20"
       id="rect8" />
    <text
       style="fill: #000000;text-anchor:middle;font-size:12.8;font-family:sanserif;font-style:normal;font-weight:normal"
       x="291.888"
       y="335.71"
       id="text10">
      <tspan
         x="291.888"
         y="335.71"
         id="tspan12">loggin</tspan>
    </text>
  </g>
  <g
     id="g14">
    <ellipse
       style="fill: #ffffff"
       cx="291.888"
       cy="187.55"
       rx="6"
       ry="6"
       id="ellipse16" />
    <ellipse
       style="fill: none; fill-opacity:0; stroke-width: 2; stroke: #000000"
       cx="291.888"
       cy="187.55"
       rx="6"
       ry="6"
       id="ellipse18" />
    <line
       style="fill: none; fill-opacity:0; stroke-width: 2; stroke: #000000"
       x1="267.888"
       y1="199.55"
       x2="315.888"
       y2="199.55"
       id="line20" />
    <line
       style="fill: none; fill-opacity:0; stroke-width: 2; stroke: #000000"
       x1="291.888"
       y1="193.55"
       x2="291.888"
       y2="223.55"
       id="line22" />
    <line
       style="fill: none; fill-opacity:0; stroke-width: 2; stroke: #000000"
       x1="291.888"
       y1="223.55"
       x2="267.888"
       y2="249.55"
       id="line24" />
    <line
       style="fill: none; fill-opacity:0; stroke-width: 2; stroke: #000000"
       x1="291.888"
       y1="223.55"
       x2="315.888"
       y2="249.55"
       id="line26" />
    <text
       style="fill: #000000;text-anchor:middle;font-size:12.8;font-family:sanserif;font-style:normal;font-weight:normal"
       x="291.888"
       y="273.45"
       id="text28">
      <tspan
         x="291.888"
         y="273.45"
         id="tspan30">Administrator</tspan>
    </text>
  </g>
  <g
     id="g32">
    <line
       style="fill: none; fill-opacity:0; stroke-width: 2; stroke: #000000"
       x1="291.888"
       y1="277.55"
       x2="291.888"
       y2="304.074"
       id="line34" />
    <polygon
       style="fill: #000000"
       points="291.888,311.574 286.888,301.574 291.888,304.074 296.888,301.574 "
       id="polygon36" />
    <polygon
       style="fill: none; fill-opacity:0; stroke-width: 2; stroke: #000000"
       points="291.888,311.574 286.888,301.574 291.888,304.074 296.888,301.574 "
       id="polygon38" />
  </g>
  <g
     id="g40">
    <rect
       style="fill: #ffffff"
       x="203.188"
       y="386.07"
       width="177.4"
       height="36"
       rx="20"
       ry="20"
       id="rect42" />
    <rect
       style="fill: none; fill-opacity:0; stroke-width: 2; stroke: #000000"
       x="203.188"
       y="386.07"
       width="177.4"
       height="36"
       rx="20"
       ry="20"
       id="rect44" />
    <text
       style="fill: #000000;text-anchor:middle;font-size:12.8;font-family:sanserif;font-style:normal;font-weight:normal"
       x="291.888"
       y="407.97"
       id="text46">
      <tspan
         x="291.888"
         y="407.97"
         id="tspan48">goto configuraiton panel</tspan>
    </text>
  </g>
  <g
     id="g50">
    <line
       style="fill: none; fill-opacity:0; stroke-width: 2; stroke: #000000"
       x1="291.888"
       y1="349.81"
       x2="291.888"
       y2="376.334"
       id="line52" />
    <polygon
       style="fill: #000000"
       points="291.888,383.834 286.888,373.834 291.888,376.334 296.888,373.834 "
       id="polygon54" />
    <polygon
       style="fill: none; fill-opacity:0; stroke-width: 2; stroke: #000000"
       points="291.888,383.834 286.888,373.834 291.888,376.334 296.888,373.834 "
       id="polygon56" />
  </g>
  <g
     id="g58">
    <rect
       style="fill: #ffffff"
       x="178.038"
       y="458.332"
       width="226.8"
       height="36"
       rx="20"
       ry="20"
       id="rect60" />
    <rect
       style="fill: none; fill-opacity:0; stroke-width: 2; stroke: #000000"
       x="178.038"
       y="458.332"
       width="226.8"
       height="36"
       rx="20"
       ry="20"
       id="rect62" />
    <text
       style="fill: #000000;text-anchor:middle;font-size:12.8;font-family:sanserif;font-style:normal;font-weight:normal"
       x="291.438"
       y="480.232"
       id="text64">
      <tspan
         x="291.438"
         y="480.232"
         id="tspan66">goto render nodes configuraiton</tspan>
    </text>
  </g>
  <g
     id="g68">
    <line
       style="fill: none; fill-opacity:0; stroke-width: 2; stroke: #000000"
       x1="291.888"
       y1="422.07"
       x2="291.559"
       y2="448.597"
       id="line70" />
    <polygon
       style="fill: #000000"
       points="291.466,456.096 286.59,446.035 291.559,448.597 296.589,446.159 "
       id="polygon72" />
    <polygon
       style="fill: none; fill-opacity:0; stroke-width: 2; stroke: #000000"
       points="291.466,456.096 286.59,446.035 291.559,448.597 296.589,446.159 "
       id="polygon74" />
  </g>
  <g
     id="g76">
    <rect
       style="fill: #fffcb4"
       x="340.314"
       y="633.852"
       width="80"
       height="36"
       rx="20"
       ry="20"
       id="rect78" />
    <rect
       style="fill: none; fill-opacity:0; stroke-width: 2; stroke: #000000"
       x="340.314"
       y="633.852"
       width="80"
       height="36"
       rx="20"
       ry="20"
       id="rect80" />
    <text
       style="fill: #000000;text-anchor:middle;font-size:12.8;font-family:sanserif;font-style:normal;font-weight:normal"
       x="380.314"
       y="655.752"
       id="text82">
      <tspan
         x="380.314"
         y="655.752"
         id="tspan84">modify</tspan>
    </text>
  </g>
  <g
     id="g86">
    <rect
       style="fill: #fffcb4"
       x="392.238"
       y="545.592"
       width="94.1"
       height="36"
       rx="20"
       ry="20"
       id="rect88" />
    <rect
       style="fill: none; fill-opacity:0; stroke-width: 2; stroke: #000000"
       x="392.238"
       y="545.592"
       width="94.1"
       height="36"
       rx="20"
       ry="20"
       id="rect90" />
    <text
       style="fill: #000000;text-anchor:middle;font-size:12.8;font-family:sanserif;font-style:normal;font-weight:normal"
       x="439.288"
       y="567.492"
       id="text92">
      <tspan
         x="439.288"
         y="567.492"
         id="tspan94">select node</tspan>
    </text>
  </g>
  <g
     id="g96">
    <rect
       style="fill: #e5e5e5"
       x="72.138"
       y="546.142"
       width="96.7"
       height="36"
       rx="20"
       ry="20"
       id="rect98" />
    <rect
       style="fill: none; fill-opacity:0; stroke-width: 2; stroke: #000000"
       x="72.138"
       y="546.142"
       width="96.7"
       height="36"
       rx="20"
       ry="20"
       id="rect100" />
    <text
       style="fill: #000000;text-anchor:middle;font-size:12.8;font-family:sanserif;font-style:normal;font-weight:normal"
       x="120.488"
       y="568.042"
       id="text102">
      <tspan
         x="120.488"
         y="568.042"
         id="tspan104">create node</tspan>
    </text>
  </g>
  <g
     id="g106">
    <rect
       style="fill: #ffebca"
       x="465.212"
       y="633.402"
       width="80"
       height="36"
       rx="20"
       ry="20"
       id="rect108" />
    <rect
       style="fill: none; fill-opacity:0; stroke-width: 2; stroke: #000000"
       x="465.212"
       y="633.402"
       width="80"
       height="36"
       rx="20"
       ry="20"
       id="rect110" />
    <text
       style="fill: #000000;text-anchor:middle;font-size:12.8;font-family:sanserif;font-style:normal;font-weight:normal"
       x="505.212"
       y="655.302"
       id="text112">
      <tspan
         x="505.212"
         y="655.302"
         id="tspan114">delete</tspan>
    </text>
  </g>
  <g
     id="g116">
    <rect
       style="fill: #e5e5e5"
       x="122.213"
       y="621.402"
       width="137.85"
       height="52"
       rx="20"
       ry="20"
       id="rect118" />
    <rect
       style="fill: none; fill-opacity:0; stroke-width: 2; stroke: #000000"
       x="122.213"
       y="621.402"
       width="137.85"
       height="52"
       rx="20"
       ry="20"
       id="rect120" />
    <text
       style="fill: #000000;text-anchor:middle;font-size:12.8;font-family:sanserif;font-style:normal;font-weight:normal"
       x="191.138"
       y="643.302"
       id="text122">
      <tspan
         x="191.138"
         y="643.302"
         id="tspan124">goto render nodes</tspan>
      <tspan
         x="191.138"
         y="659.302"
         id="tspan126">configuration</tspan>
    </text>
  </g>
  <g
     id="g128">
    <rect
       style="fill: #e5e5e5"
       x="-4.962"
       y="621.692"
       width="88.8"
       height="52"
       rx="20"
       ry="20"
       id="rect130" />
    <rect
       style="fill: none; fill-opacity:0; stroke-width: 2; stroke: #000000"
       x="-4.962"
       y="621.692"
       width="88.8"
       height="52"
       rx="20"
       ry="20"
       id="rect132" />
    <text
       style="fill: #000000;text-anchor:middle;font-size:12.8;font-family:sanserif;font-style:normal;font-weight:normal"
       x="39.438"
       y="643.592"
       id="text134">
      <tspan
         x="39.438"
         y="643.592"
         id="tspan136">create and</tspan>
      <tspan
         x="39.438"
         y="659.592"
         id="tspan138">continue</tspan>
    </text>
  </g>
  <g
     id="g140">
    <polyline
       style="fill: none; fill-opacity:0; stroke-width: 2; stroke: #000000"
       points="120.488,582.142 120.488,601.772 191.138,601.772 191.138,611.666 "
       id="polyline142" />
    <polygon
       style="fill: #000000"
       points="191.138,619.166 186.138,609.166 191.138,611.666 196.138,609.166 "
       id="polygon144" />
    <polygon
       style="fill: none; fill-opacity:0; stroke-width: 2; stroke: #000000"
       points="191.138,619.166 186.138,609.166 191.138,611.666 196.138,609.166 "
       id="polygon146" />
  </g>
  <g
     id="g148">
    <polyline
       style="fill: none; fill-opacity:0; stroke-width: 2; stroke: #000000"
       points="120.488,582.142 120.488,601.917 39.438,601.917 39.438,611.956 "
       id="polyline150" />
    <polygon
       style="fill: #000000"
       points="39.438,619.456 34.438,609.456 39.438,611.956 44.438,609.456 "
       id="polygon152" />
    <polygon
       style="fill: none; fill-opacity:0; stroke-width: 2; stroke: #000000"
       points="39.438,619.456 34.438,609.456 39.438,611.956 44.438,609.456 "
       id="polygon154" />
  </g>
  <g
     id="g156">
    <polyline
       style="fill: none; fill-opacity:0; stroke-width: 2; stroke: #000000"
       points="439.288,581.592 439.288,607.722 380.314,607.722 380.314,624.116 "
       id="polyline158" />
    <polygon
       style="fill: #000000"
       points="380.314,631.616 375.314,621.616 380.314,624.116 385.314,621.616 "
       id="polygon160" />
    <polygon
       style="fill: none; fill-opacity:0; stroke-width: 2; stroke: #000000"
       points="380.314,631.616 375.314,621.616 380.314,624.116 385.314,621.616 "
       id="polygon162" />
  </g>
  <g
     id="g164">
    <polyline
       style="fill: none; fill-opacity:0; stroke-width: 2; stroke: #000000"
       points="439.288,581.592 439.288,607.497 505.212,607.497 505.212,623.666 "
       id="polyline166" />
    <polygon
       style="fill: #000000"
       points="505.212,631.166 500.212,621.166 505.212,623.666 510.212,621.166 "
       id="polygon168" />
    <polygon
       style="fill: none; fill-opacity:0; stroke-width: 2; stroke: #000000"
       points="505.212,631.166 500.212,621.166 505.212,623.666 510.212,621.166 "
       id="polygon170" />
  </g>
  <g
     id="g172">
    <polyline
       style="fill: none; fill-opacity:0; stroke-width: 2; stroke: #000000"
       points="291.438,494.332 291.438,519.962 439.288,519.962 439.288,535.856 "
       id="polyline174" />
    <polygon
       style="fill: #000000"
       points="439.288,543.356 434.288,533.356 439.288,535.856 444.288,533.356 "
       id="polygon176" />
    <polygon
       style="fill: none; fill-opacity:0; stroke-width: 2; stroke: #000000"
       points="439.288,543.356 434.288,533.356 439.288,535.856 444.288,533.356 "
       id="polygon178" />
  </g>
  <g
     id="g180">
    <polyline
       style="fill: none; fill-opacity:0; stroke-width: 2; stroke: #000000"
       points="291.438,494.332 291.438,520.237 120.488,520.237 120.488,536.406 "
       id="polyline182" />
    <polygon
       style="fill: #000000"
       points="120.488,543.906 115.488,533.906 120.488,536.406 125.488,533.906 "
       id="polygon184" />
    <polygon
       style="fill: none; fill-opacity:0; stroke-width: 2; stroke: #000000"
       points="120.488,543.906 115.488,533.906 120.488,536.406 125.488,533.906 "
       id="polygon186" />
  </g>
  <g
     id="g188">
    <rect
       style="fill: #ffebca"
       x="464.612"
       y="704.952"
       width="80"
       height="36"
       rx="20"
       ry="20"
       id="rect190" />
    <rect
       style="fill: none; fill-opacity:0; stroke-width: 2; stroke: #000000"
       x="464.612"
       y="704.952"
       width="80"
       height="36"
       rx="20"
       ry="20"
       id="rect192" />
    <text
       style="fill: #000000;text-anchor:middle;font-size:12.8;font-family:sanserif;font-style:normal;font-weight:normal"
       x="504.612"
       y="726.852"
       id="text194">
      <tspan
         x="504.612"
         y="726.852"
         id="tspan196">delete</tspan>
    </text>
  </g>
  <g
     id="g198">
    <line
       style="fill: none; fill-opacity:0; stroke-width: 2; stroke: #000000"
       x1="505.212"
       y1="669.402"
       x2="504.776"
       y2="695.217"
       id="line200" />
    <polygon
       style="fill: #000000"
       points="504.65,702.716 499.819,692.633 504.776,695.217 509.818,692.802 "
       id="polygon202" />
    <polygon
       style="fill: none; fill-opacity:0; stroke-width: 2; stroke: #000000"
       points="504.65,702.716 499.819,692.633 504.776,695.217 509.818,692.802 "
       id="polygon204" />
  </g>
  <g
     id="g206">
    <path
       style="fill: none; fill-opacity:0; stroke-width: 2; stroke: #000000"
       d="M -4.962 647.692 C -86.86,647.236 -57.86,562.236 62.403,563.999"
       id="path208" />
    <polygon
       style="fill: #000000"
       points="69.9022,564.109 59.8299,568.962 62.403,563.999 59.9765,558.963 "
       id="polygon210" />
    <polygon
       style="fill: none; fill-opacity:0; stroke-width: 2; stroke: #000000"
       points="69.9022,564.109 59.8299,568.962 62.403,563.999 59.9765,558.963 "
       id="polygon212" />
  </g>
</svg>
