<?xml version="1.0" encoding="UTF-8" standalone="no"?>
<svg
   xmlns:dc="http://purl.org/dc/elements/1.1/"
   xmlns:cc="http://creativecommons.org/ns#"
   xmlns:rdf="http://www.w3.org/1999/02/22-rdf-syntax-ns#"
   xmlns:svg="http://www.w3.org/2000/svg"
   xmlns="http://www.w3.org/2000/svg"
   xmlns:sodipodi="http://sodipodi.sourceforge.net/DTD/sodipodi-0.dtd"
   xmlns:inkscape="http://www.inkscape.org/namespaces/inkscape"
   width="29cm"
   height="28cm"
   viewBox="33 168 569 556"
   id="svg2"
   version="1.1"
   inkscape:version="0.48.1 r9760"
   sodipodi:docname="US24.svg"
   inkscape:export-filename="../imgs/US24.png"
   inkscape:export-xdpi="100"
   inkscape:export-ydpi="100">
  <metadata
     id="metadata192">
    <rdf:RDF>
      <cc:Work
         rdf:about="">
        <dc:format>image/svg+xml</dc:format>
        <dc:type
           rdf:resource="http://purl.org/dc/dcmitype/StillImage" />
        <dc:title></dc:title>
      </cc:Work>
    </rdf:RDF>
  </metadata>
  <defs
     id="defs190" />
  <sodipodi:namedview
     pagecolor="#ffffff"
     bordercolor="#666666"
     borderopacity="1"
     objecttolerance="10"
     gridtolerance="10"
     guidetolerance="10"
     inkscape:pageopacity="0"
     inkscape:pageshadow="2"
     inkscape:window-width="640"
     inkscape:window-height="480"
     id="namedview188"
     showgrid="false"
     inkscape:zoom="0.2650873"
     inkscape:cx="513.77954"
     inkscape:cy="496.06299"
     inkscape:window-x="0"
     inkscape:window-y="25"
     inkscape:window-maximized="0"
     inkscape:current-layer="svg2" />
  <g
     id="g4">
    <rect
       style="fill: #ffffff"
       x="277.662"
       y="320.01"
       width="80"
       height="36"
       rx="20"
       ry="20"
       id="rect6" />
    <rect
       style="fill: none; fill-opacity:0; stroke-width: 2; stroke: #000000"
       x="277.662"
       y="320.01"
       width="80"
       height="36"
       rx="20"
       ry="20"
       id="rect8" />
    <text
       style="fill: #000000;text-anchor:middle;font-size:12.8;font-family:sanserif;font-style:normal;font-weight:normal"
       x="317.662"
       y="341.91"
       id="text10">
      <tspan
         x="317.662"
         y="341.91"
         id="tspan12">loggin</tspan>
    </text>
  </g>
  <g
     id="g14">
    <ellipse
       style="fill: #ffffff"
       cx="317.476"
       cy="187.55"
       rx="6"
       ry="6"
       id="ellipse16" />
    <ellipse
       style="fill: none; fill-opacity:0; stroke-width: 2; stroke: #000000"
       cx="317.476"
       cy="187.55"
       rx="6"
       ry="6"
       id="ellipse18" />
    <line
       style="fill: none; fill-opacity:0; stroke-width: 2; stroke: #000000"
       x1="293.476"
       y1="199.55"
       x2="341.476"
       y2="199.55"
       id="line20" />
    <line
       style="fill: none; fill-opacity:0; stroke-width: 2; stroke: #000000"
       x1="317.476"
       y1="193.55"
       x2="317.476"
       y2="223.55"
       id="line22" />
    <line
       style="fill: none; fill-opacity:0; stroke-width: 2; stroke: #000000"
       x1="317.476"
       y1="223.55"
       x2="293.476"
       y2="249.55"
       id="line24" />
    <line
       style="fill: none; fill-opacity:0; stroke-width: 2; stroke: #000000"
       x1="317.476"
       y1="223.55"
       x2="341.476"
       y2="249.55"
       id="line26" />
    <text
       style="fill: #000000;text-anchor:middle;font-size:12.8;font-family:sanserif;font-style:normal;font-weight:normal"
       x="317.476"
       y="273.45"
       id="text28">
      <tspan
         x="317.476"
         y="273.45"
         id="tspan30">Administrator</tspan>
    </text>
  </g>
  <g
     id="g32">
    <line
       style="fill: none; fill-opacity:0; stroke-width: 2; stroke: #000000"
       x1="317.476"
       y1="277.55"
       x2="317.619"
       y2="310.274"
       id="line34" />
    <polygon
       style="fill: #000000"
       points="317.652,317.774 312.608,307.796 317.619,310.274 322.608,307.752 "
       id="polygon36" />
    <polygon
       style="fill: none; fill-opacity:0; stroke-width: 2; stroke: #000000"
       points="317.652,317.774 312.608,307.796 317.619,310.274 322.608,307.752 "
       id="polygon38" />
  </g>
  <g
     id="g40">
    <rect
       style="fill: #ffffff"
       x="255.212"
       y="398.47"
       width="124.9"
       height="36"
       rx="20"
       ry="20"
       id="rect42" />
    <rect
       style="fill: none; fill-opacity:0; stroke-width: 2; stroke: #000000"
       x="255.212"
       y="398.47"
       width="124.9"
       height="36"
       rx="20"
       ry="20"
       id="rect44" />
    <text
       style="fill: #000000;text-anchor:middle;font-size:12.8;font-family:sanserif;font-style:normal;font-weight:normal"
       x="317.662"
       y="420.37"
       id="text46">
      <tspan
         x="317.662"
         y="420.37"
         id="tspan48">show dashboard</tspan>
    </text>
  </g>
  <g
     id="g50">
    <line
       style="fill: none; fill-opacity:0; stroke-width: 2; stroke: #000000"
       x1="317.662"
       y1="356.01"
       x2="317.662"
       y2="388.734"
       id="line52" />
    <polygon
       style="fill: #000000"
       points="317.662,396.234 312.662,386.234 317.662,388.734 322.662,386.234 "
       id="polygon54" />
    <polygon
       style="fill: none; fill-opacity:0; stroke-width: 2; stroke: #000000"
       points="317.662,396.234 312.662,386.234 317.662,388.734 322.662,386.234 "
       id="polygon56" />
  </g>
  <g
     id="g58">
    <line
       style="fill: none; fill-opacity:0; stroke-width: 2; stroke: #000000"
       x1="317.862"
       y1="549.296"
       x2="317.862"
       y2="570.11"
       id="line60" />
    <polygon
       style="fill: #000000"
       points="317.862,577.61 312.862,567.61 317.862,570.11 322.862,567.61 "
       id="polygon62" />
    <polygon
       style="fill: none; fill-opacity:0; stroke-width: 2; stroke: #000000"
       points="317.862,577.61 312.862,567.61 317.862,570.11 322.862,567.61 "
       id="polygon64" />
  </g>
  <g
     id="g66">
    <rect
       style="fill: #e5e5e5"
       x="245.012"
       y="497.296"
       width="145.7"
       height="52"
       rx="20"
       ry="20"
       id="rect68" />
    <rect
       style="fill: none; fill-opacity:0; stroke-width: 2; stroke: #000000"
       x="245.012"
       y="497.296"
       width="145.7"
       height="52"
       rx="20"
       ry="20"
       id="rect70" />
    <text
       style="fill: #000000;text-anchor:middle;font-size:12.8;font-family:sanserif;font-style:normal;font-weight:normal"
       x="317.862"
       y="519.196"
       id="text72">
      <tspan
         x="317.862"
         y="519.196"
         id="tspan74">list of administrator</tspan>
      <tspan
         x="317.862"
         y="535.196"
         id="tspan76">request</tspan>
    </text>
  </g>
  <g
     id="g78">
    <rect
       style="fill: #e5e5e5"
       x="262.488"
       y="579.846"
       width="110.75"
       height="36"
       rx="20"
       ry="20"
       id="rect80" />
    <rect
       style="fill: none; fill-opacity:0; stroke-width: 2; stroke: #000000"
       x="262.488"
       y="579.846"
       width="110.75"
       height="36"
       rx="20"
       ry="20"
       id="rect82" />
    <text
       style="fill: #000000;text-anchor:middle;font-size:12.8;font-family:sanserif;font-style:normal;font-weight:normal"
       x="317.863"
       y="601.746"
       id="text84">
      <tspan
         x="317.863"
         y="601.746"
         id="tspan86">select request</tspan>
    </text>
  </g>
  <g
     id="g88">
    <polyline
       style="fill: none; fill-opacity:0; stroke-width: 2; stroke: #000000"
       points="317.662,434.47 317.662,465.883 317.862,465.883 317.862,487.56 "
       id="polyline90" />
    <polygon
       style="fill: #000000"
       points="317.862,495.06 312.862,485.06 317.862,487.56 322.862,485.06 "
       id="polygon92" />
    <polygon
       style="fill: none; fill-opacity:0; stroke-width: 2; stroke: #000000"
       points="317.862,495.06 312.862,485.06 317.862,487.56 322.862,485.06 "
       id="polygon94" />
  </g>
  <g
     id="g96">
    <rect
       style="fill: #fffcb4"
       x="34.913"
       y="679.22"
       width="80"
       height="36"
       rx="20"
       ry="20"
       id="rect98" />
    <rect
       style="fill: none; fill-opacity:0; stroke-width: 2; stroke: #000000"
       x="34.913"
       y="679.22"
       width="80"
       height="36"
       rx="20"
       ry="20"
       id="rect100" />
    <text
       style="fill: #000000;text-anchor:middle;font-size:12.8;font-family:sanserif;font-style:normal;font-weight:normal"
       x="74.913"
       y="701.12"
       id="text102">
      <tspan
         x="74.913"
         y="701.12"
         id="tspan104">close</tspan>
    </text>
  </g>
  <g
     id="g106">
    <rect
       style="fill: #fffcb4"
       x="140.7"
       y="679.22"
       width="80"
       height="36"
       rx="20"
       ry="20"
       id="rect108" />
    <rect
       style="fill: none; fill-opacity:0; stroke-width: 2; stroke: #000000"
       x="140.7"
       y="679.22"
       width="80"
       height="36"
       rx="20"
       ry="20"
       id="rect110" />
    <text
       style="fill: #000000;text-anchor:middle;font-size:12.8;font-family:sanserif;font-style:normal;font-weight:normal"
       x="180.7"
       y="701.12"
       id="text112">
      <tspan
         x="180.7"
         y="701.12"
         id="tspan114">done</tspan>
    </text>
  </g>
  <g
     id="g116">
    <rect
       style="fill: #fffcb4"
       x="246.488"
       y="671.22"
       width="143.45"
       height="52"
       rx="20"
       ry="20"
       id="rect118" />
    <rect
       style="fill: none; fill-opacity:0; stroke-width: 2; stroke: #000000"
       x="246.488"
       y="671.22"
       width="143.45"
       height="52"
       rx="20"
       ry="20"
       id="rect120" />
    <text
       style="fill: #000000;text-anchor:middle;font-size:12.8;font-family:sanserif;font-style:normal;font-weight:normal"
       x="318.213"
       y="693.12"
       id="text122">
      <tspan
         x="318.213"
         y="693.12"
         id="tspan124">done</tspan>
      <tspan
         x="318.213"
         y="709.12"
         id="tspan126">must restart server</tspan>
    </text>
  </g>
  <g
     id="g128">
    <rect
       style="fill: #fffcb4"
       x="415.726"
       y="679.22"
       width="80.1"
       height="36"
       rx="20"
       ry="20"
       id="rect130" />
    <rect
       style="fill: none; fill-opacity:0; stroke-width: 2; stroke: #000000"
       x="415.726"
       y="679.22"
       width="80.1"
       height="36"
       rx="20"
       ry="20"
       id="rect132" />
    <text
       style="fill: #000000;text-anchor:middle;font-size:12.8;font-family:sanserif;font-style:normal;font-weight:normal"
       x="455.776"
       y="701.12"
       id="text134">
      <tspan
         x="455.776"
         y="701.12"
         id="tspan136">need info</tspan>
    </text>
  </g>
  <g
     id="g138">
    <rect
       style="fill: #fffcb4"
       x="521.612"
       y="679.22"
       width="80"
       height="36"
       rx="20"
       ry="20"
       id="rect140" />
    <rect
       style="fill: none; fill-opacity:0; stroke-width: 2; stroke: #000000"
       x="521.612"
       y="679.22"
       width="80"
       height="36"
       rx="20"
       ry="20"
       id="rect142" />
    <text
       style="fill: #000000;text-anchor:middle;font-size:12.8;font-family:sanserif;font-style:normal;font-weight:normal"
       x="561.612"
       y="701.12"
       id="text144">
      <tspan
         x="561.612"
         y="701.12"
         id="tspan146">reject</tspan>
    </text>
  </g>
  <g
     id="g148">
    <polyline
       style="fill: none; fill-opacity:0; stroke-width: 2; stroke: #000000"
       points="317.863,615.846 317.863,647.533 74.913,647.533 74.913,669.484 "
       id="polyline150" />
    <polygon
       style="fill: #000000"
       points="74.913,676.984 69.913,666.984 74.913,669.484 79.913,666.984 "
       id="polygon152" />
    <polygon
       style="fill: none; fill-opacity:0; stroke-width: 2; stroke: #000000"
       points="74.913,676.984 69.913,666.984 74.913,669.484 79.913,666.984 "
       id="polygon154" />
  </g>
  <g
     id="g156">
    <polyline
       style="fill: none; fill-opacity:0; stroke-width: 2; stroke: #000000"
       points="317.863,615.846 317.863,647.533 180.7,647.533 180.7,669.484 "
       id="polyline158" />
    <polygon
       style="fill: #000000"
       points="180.7,676.984 175.7,666.984 180.7,669.484 185.7,666.984 "
       id="polygon160" />
    <polygon
       style="fill: none; fill-opacity:0; stroke-width: 2; stroke: #000000"
       points="180.7,676.984 175.7,666.984 180.7,669.484 185.7,666.984 "
       id="polygon162" />
  </g>
  <g
     id="g164">
    <polyline
       style="fill: none; fill-opacity:0; stroke-width: 2; stroke: #000000"
       points="317.863,615.846 317.863,647.533 455.776,647.533 455.776,669.484 "
       id="polyline166" />
    <polygon
       style="fill: #000000"
       points="455.776,676.984 450.776,666.984 455.776,669.484 460.776,666.984 "
       id="polygon168" />
    <polygon
       style="fill: none; fill-opacity:0; stroke-width: 2; stroke: #000000"
       points="455.776,676.984 450.776,666.984 455.776,669.484 460.776,666.984 "
       id="polygon170" />
  </g>
  <g
     id="g172">
    <polyline
       style="fill: none; fill-opacity:0; stroke-width: 2; stroke: #000000"
       points="317.863,615.846 317.863,647.533 561.612,647.533 561.612,669.484 "
       id="polyline174" />
    <polygon
       style="fill: #000000"
       points="561.612,676.984 556.612,666.984 561.612,669.484 566.612,666.984 "
       id="polygon176" />
    <polygon
       style="fill: none; fill-opacity:0; stroke-width: 2; stroke: #000000"
       points="561.612,676.984 556.612,666.984 561.612,669.484 566.612,666.984 "
       id="polygon178" />
  </g>
  <g
     id="g180">
    <line
       style="fill: none; fill-opacity:0; stroke-width: 2; stroke: #000000"
       x1="317.862"
       y1="615.846"
       x2="318.152"
       y2="661.484"
       id="line182" />
    <polygon
       style="fill: #000000"
       points="318.2,668.984 313.136,659.016 318.152,661.484 323.136,658.952 "
       id="polygon184" />
    <polygon
       style="fill: none; fill-opacity:0; stroke-width: 2; stroke: #000000"
       points="318.2,668.984 313.136,659.016 318.152,661.484 323.136,658.952 "
       id="polygon186" />
  </g>
</svg>
