<?xml version="1.0" encoding="UTF-8" standalone="no"?>
<svg
   xmlns:dc="http://purl.org/dc/elements/1.1/"
   xmlns:cc="http://creativecommons.org/ns#"
   xmlns:rdf="http://www.w3.org/1999/02/22-rdf-syntax-ns#"
   xmlns:svg="http://www.w3.org/2000/svg"
   xmlns="http://www.w3.org/2000/svg"
   xmlns:sodipodi="http://sodipodi.sourceforge.net/DTD/sodipodi-0.dtd"
   xmlns:inkscape="http://www.inkscape.org/namespaces/inkscape"
   width="37cm"
   height="27cm"
   viewBox="359 258 737 521"
   id="svg2"
   version="1.1"
   inkscape:version="0.48.1 r9760"
   sodipodi:docname="US25.svg"
   inkscape:export-filename="../imgs/US25.png"
   inkscape:export-xdpi="100"
   inkscape:export-ydpi="100">
  <metadata
     id="metadata222">
    <rdf:RDF>
      <cc:Work
         rdf:about="">
        <dc:format>image/svg+xml</dc:format>
        <dc:type
           rdf:resource="http://purl.org/dc/dcmitype/StillImage" />
        <dc:title></dc:title>
      </cc:Work>
    </rdf:RDF>
  </metadata>
  <defs
     id="defs220" />
  <sodipodi:namedview
     pagecolor="#ffffff"
     bordercolor="#666666"
     borderopacity="1"
     objecttolerance="10"
     gridtolerance="10"
     guidetolerance="10"
     inkscape:pageopacity="0"
     inkscape:pageshadow="2"
     inkscape:window-width="640"
     inkscape:window-height="480"
     id="namedview218"
     showgrid="false"
     inkscape:zoom="0.27490534"
     inkscape:cx="655.51184"
     inkscape:cy="478.34647"
     inkscape:window-x="0"
     inkscape:window-y="25"
     inkscape:window-maximized="0"
     inkscape:current-layer="svg2" />
  <g
     id="g4">
    <rect
       style="fill: #ffffff"
       x="513.174"
       y="400.9"
       width="80"
       height="36"
       rx="20"
       ry="20"
       id="rect6" />
    <rect
       style="fill: none; fill-opacity:0; stroke-width: 2; stroke: #000000"
       x="513.174"
       y="400.9"
       width="80"
       height="36"
       rx="20"
       ry="20"
       id="rect8" />
    <text
       style="fill: #000000;text-anchor:middle;font-size:12.8;font-family:sanserif;font-style:normal;font-weight:normal"
       x="553.174"
       y="422.8"
       id="text10">
      <tspan
         x="553.174"
         y="422.8"
         id="tspan12">loggin</tspan>
    </text>
  </g>
  <g
     id="g14">
    <ellipse
       style="fill: #ffffff"
       cx="553.174"
       cy="277.55"
       rx="6"
       ry="6"
       id="ellipse16" />
    <ellipse
       style="fill: none; fill-opacity:0; stroke-width: 2; stroke: #000000"
       cx="553.174"
       cy="277.55"
       rx="6"
       ry="6"
       id="ellipse18" />
    <line
       style="fill: none; fill-opacity:0; stroke-width: 2; stroke: #000000"
       x1="529.174"
       y1="289.55"
       x2="577.174"
       y2="289.55"
       id="line20" />
    <line
       style="fill: none; fill-opacity:0; stroke-width: 2; stroke: #000000"
       x1="553.174"
       y1="283.55"
       x2="553.174"
       y2="313.55"
       id="line22" />
    <line
       style="fill: none; fill-opacity:0; stroke-width: 2; stroke: #000000"
       x1="553.174"
       y1="313.55"
       x2="529.174"
       y2="339.55"
       id="line24" />
    <line
       style="fill: none; fill-opacity:0; stroke-width: 2; stroke: #000000"
       x1="553.174"
       y1="313.55"
       x2="577.174"
       y2="339.55"
       id="line26" />
    <text
       style="fill: #000000;text-anchor:middle;font-size:12.8;font-family:sanserif;font-style:normal;font-weight:normal"
       x="553.174"
       y="363.45"
       id="text28">
      <tspan
         x="553.174"
         y="363.45"
         id="tspan30">Member</tspan>
    </text>
  </g>
  <g
     id="g32">
    <line
       style="fill: none; fill-opacity:0; stroke-width: 2; stroke: #000000"
       x1="553.174"
       y1="368.554"
       x2="553.174"
       y2="391.164"
       id="line34" />
    <polygon
       style="fill: #000000"
       points="553.174,398.664 548.174,388.664 553.174,391.164 558.174,388.664 "
       id="polygon36" />
    <polygon
       style="fill: none; fill-opacity:0; stroke-width: 2; stroke: #000000"
       points="553.174,398.664 548.174,388.664 553.174,391.164 558.174,388.664 "
       id="polygon38" />
  </g>
  <g
     id="g40">
    <rect
       style="fill: #ffffff"
       x="491.2"
       y="486.55"
       width="124.95"
       height="36"
       rx="20"
       ry="20"
       id="rect42" />
    <rect
       style="fill: none; fill-opacity:0; stroke-width: 2; stroke: #000000"
       x="491.2"
       y="486.55"
       width="124.95"
       height="36"
       rx="20"
       ry="20"
       id="rect44" />
    <text
       style="fill: #000000;text-anchor:middle;font-size:12.8;font-family:sanserif;font-style:normal;font-weight:normal"
       x="553.675"
       y="508.45"
       id="text46">
      <tspan
         x="553.675"
         y="508.45"
         id="tspan48">go into a project</tspan>
    </text>
  </g>
  <g
     id="g50">
    <line
       style="fill: none; fill-opacity:0; stroke-width: 2; stroke: #000000"
       x1="552.774"
       y1="604.838"
       x2="552.776"
       y2="672.976"
       id="line52" />
    <polygon
       style="fill: #000000"
       points="552.776,680.476 547.776,670.476 552.776,672.976 557.776,670.476 "
       id="polygon54" />
    <polygon
       style="fill: none; fill-opacity:0; stroke-width: 2; stroke: #000000"
       points="552.776,680.476 547.776,670.476 552.776,672.976 557.776,670.476 "
       id="polygon56" />
  </g>
  <g
     id="g58">
    <rect
       style="fill: #ffffff"
       x="500.25"
       y="568.838"
       width="105.05"
       height="36"
       rx="20"
       ry="20"
       id="rect60" />
    <rect
       style="fill: none; fill-opacity:0; stroke-width: 2; stroke: #000000"
       x="500.25"
       y="568.838"
       width="105.05"
       height="36"
       rx="20"
       ry="20"
       id="rect62" />
    <text
       style="fill: #000000;text-anchor:middle;font-size:12.8;font-family:sanserif;font-style:normal;font-weight:normal"
       x="552.775"
       y="590.738"
       id="text64">
      <tspan
         x="552.775"
         y="590.738"
         id="tspan66">go into a test</tspan>
    </text>
  </g>
  <g
     id="g68">
    <rect
       style="fill: #ffffff"
       x="663.55"
       y="568.838"
       width="86.65"
       height="36"
       rx="20"
       ry="20"
       id="rect70" />
    <rect
       style="fill: none; fill-opacity:0; stroke-width: 2; stroke: #000000"
       x="663.55"
       y="568.838"
       width="86.65"
       height="36"
       rx="20"
       ry="20"
       id="rect72" />
    <text
       style="fill: #000000;text-anchor:middle;font-size:12.8;font-family:sanserif;font-style:normal;font-weight:normal"
       x="706.875"
       y="590.738"
       id="text74">
      <tspan
         x="706.875"
         y="590.738"
         id="tspan76">select test</tspan>
    </text>
  </g>
  <g
     id="g78">
    <polyline
       style="fill: none; fill-opacity:0; stroke-width: 2; stroke: #000000"
       points="553.674,522.55 553.674,545.694 706.876,545.694 706.876,559.102 "
       id="polyline80" />
    <polygon
       style="fill: #000000"
       points="706.876,566.602 701.876,556.602 706.876,559.102 711.876,556.602 "
       id="polygon82" />
    <polygon
       style="fill: none; fill-opacity:0; stroke-width: 2; stroke: #000000"
       points="706.876,566.602 701.876,556.602 706.876,559.102 711.876,556.602 "
       id="polygon84" />
  </g>
  <g
     id="g86">
    <rect
       style="fill: #ffffff"
       x="512.776"
       y="682.712"
       width="80"
       height="36"
       rx="20"
       ry="20"
       id="rect88" />
    <rect
       style="fill: none; fill-opacity:0; stroke-width: 2; stroke: #000000"
       x="512.776"
       y="682.712"
       width="80"
       height="36"
       rx="20"
       ry="20"
       id="rect90" />
    <text
       style="fill: #000000;text-anchor:middle;font-size:12.8;font-family:sanserif;font-style:normal;font-weight:normal"
       x="552.776"
       y="704.612"
       id="text92">
      <tspan
         x="552.776"
         y="704.612"
         id="tspan94">run</tspan>
    </text>
  </g>
  <g
     id="g96">
    <line
       style="fill: none; fill-opacity:0; stroke-width: 2; stroke: #000000"
       x1="553.174"
       y1="436.9"
       x2="553.576"
       y2="476.814"
       id="line98" />
    <polygon
       style="fill: #000000"
       points="553.651,484.314 548.551,474.365 553.576,476.814 558.551,474.264 "
       id="polygon100" />
    <polygon
       style="fill: none; fill-opacity:0; stroke-width: 2; stroke: #000000"
       points="553.651,484.314 548.551,474.365 553.576,476.814 558.551,474.264 "
       id="polygon102" />
  </g>
  <g
     id="g104">
    <line
       style="fill: none; fill-opacity:0; stroke-width: 2; stroke: #000000"
       x1="553.674"
       y1="522.55"
       x2="552.963"
       y2="559.104"
       id="line106" />
    <polygon
       style="fill: #000000"
       points="552.817,566.602 548.013,556.507 552.963,559.104 558.011,556.701 "
       id="polygon108" />
    <polygon
       style="fill: none; fill-opacity:0; stroke-width: 2; stroke: #000000"
       points="552.817,566.602 548.013,556.507 552.963,559.104 558.011,556.701 "
       id="polygon110" />
  </g>
  <g
     id="g112">
    <polyline
       style="fill: none; fill-opacity:0; stroke-width: 2; stroke: #000000"
       points="706.876,604.838 706.876,641.75 552.776,641.75 552.776,672.976 "
       id="polyline114" />
    <polygon
       style="fill: #000000"
       points="552.776,680.476 547.776,670.476 552.776,672.976 557.776,670.476 "
       id="polygon116" />
    <polygon
       style="fill: none; fill-opacity:0; stroke-width: 2; stroke: #000000"
       points="552.776,680.476 547.776,670.476 552.776,672.976 557.776,670.476 "
       id="polygon118" />
  </g>
  <g
     id="g120">
    <ellipse
       style="fill: #ffffff"
       cx="385.574"
       cy="663.55"
       rx="6"
       ry="6"
       id="ellipse122" />
    <ellipse
       style="fill: none; fill-opacity:0; stroke-width: 2; stroke: #000000"
       cx="385.574"
       cy="663.55"
       rx="6"
       ry="6"
       id="ellipse124" />
    <line
       style="fill: none; fill-opacity:0; stroke-width: 2; stroke: #000000"
       x1="361.574"
       y1="675.55"
       x2="409.574"
       y2="675.55"
       id="line126" />
    <line
       style="fill: none; fill-opacity:0; stroke-width: 2; stroke: #000000"
       x1="385.574"
       y1="669.55"
       x2="385.574"
       y2="699.55"
       id="line128" />
    <line
       style="fill: none; fill-opacity:0; stroke-width: 2; stroke: #000000"
       x1="385.574"
       y1="699.55"
       x2="361.574"
       y2="725.55"
       id="line130" />
    <line
       style="fill: none; fill-opacity:0; stroke-width: 2; stroke: #000000"
       x1="385.574"
       y1="699.55"
       x2="409.574"
       y2="725.55"
       id="line132" />
    <text
       style="fill: #000000;text-anchor:middle;font-size:12.8;font-family:sanserif;font-style:normal;font-weight:normal"
       x="385.574"
       y="749.45"
       id="text134">
      <tspan
         x="385.574"
         y="749.45"
         id="tspan136">System</tspan>
    </text>
  </g>
  <g
     id="g138">
    <line
       style="fill: none; fill-opacity:0; stroke-width: 2; stroke: #000000"
       x1="410.574"
       y1="699.55"
       x2="503.041"
       y2="700.601"
       id="line140" />
    <polygon
       style="fill: #000000"
       points="510.54,700.687 500.484,705.573 503.041,700.601 500.598,695.573 "
       id="polygon142" />
    <polygon
       style="fill: none; fill-opacity:0; stroke-width: 2; stroke: #000000"
       points="510.54,700.687 500.484,705.573 503.041,700.601 500.598,695.573 "
       id="polygon144" />
  </g>
  <g
     id="g146">
    <rect
       style="fill: #ffebca"
       x="745.176"
       y="683.712"
       width="80"
       height="36"
       rx="20"
       ry="20"
       id="rect148" />
    <rect
       style="fill: none; fill-opacity:0; stroke-width: 2; stroke: #000000"
       x="745.176"
       y="683.712"
       width="80"
       height="36"
       rx="20"
       ry="20"
       id="rect150" />
    <text
       style="fill: #000000;text-anchor:middle;font-size:12.8;font-family:sanserif;font-style:normal;font-weight:normal"
       x="785.176"
       y="705.612"
       id="text152">
      <tspan
         x="785.176"
         y="705.612"
         id="tspan154">if fail</tspan>
    </text>
  </g>
  <g
     id="g156">
    <line
       style="fill: none; fill-opacity:0; stroke-width: 2; stroke: #000000"
       x1="592.776"
       y1="700.712"
       x2="735.44"
       y2="701.648"
       id="line158" />
    <polygon
       style="fill: #000000"
       points="742.94,701.697 732.907,706.632 735.44,701.648 732.973,696.632 "
       id="polygon160" />
    <polygon
       style="fill: none; fill-opacity:0; stroke-width: 2; stroke: #000000"
       points="742.94,701.697 732.907,706.632 735.44,701.648 732.973,696.632 "
       id="polygon162" />
  </g>
  <g
     id="g164">
    <rect
       style="fill: #ffebca"
       x="897.576"
       y="683.712"
       width="197.9"
       height="36"
       rx="20"
       ry="20"
       id="rect166" />
    <rect
       style="fill: none; fill-opacity:0; stroke-width: 2; stroke: #000000"
       x="897.576"
       y="683.712"
       width="197.9"
       height="36"
       rx="20"
       ry="20"
       id="rect168" />
    <text
       style="fill: #000000;text-anchor:middle;font-size:12.8;font-family:sanserif;font-style:normal;font-weight:normal"
       x="996.526"
       y="705.612"
       id="text170">
      <tspan
         x="996.526"
         y="705.612"
         id="tspan172">create ticket on bug tracker</tspan>
    </text>
  </g>
  <g
     id="g174">
    <line
       style="fill: none; fill-opacity:0; stroke-width: 2; stroke: #000000"
       x1="825.176"
       y1="701.712"
       x2="887.84"
       y2="701.712"
       id="line176" />
    <polygon
       style="fill: #000000"
       points="895.34,701.712 885.34,706.712 887.84,701.712 885.34,696.712 "
       id="polygon178" />
    <polygon
       style="fill: none; fill-opacity:0; stroke-width: 2; stroke: #000000"
       points="895.34,701.712 885.34,706.712 887.84,701.712 885.34,696.712 "
       id="polygon180" />
  </g>
  <g
     id="g182">
    <rect
       style="fill: #bbffb4"
       x="719.576"
       y="740.712"
       width="132.95"
       height="36"
       rx="20"
       ry="20"
       id="rect184" />
    <rect
       style="fill: none; fill-opacity:0; stroke-width: 2; stroke: #000000"
       x="719.576"
       y="740.712"
       width="132.95"
       height="36"
       rx="20"
       ry="20"
       id="rect186" />
    <text
       style="fill: #000000;text-anchor:middle;font-size:12.8;font-family:sanserif;font-style:normal;font-weight:normal"
       x="786.051"
       y="762.612"
       id="text188">
      <tspan
         x="786.051"
         y="762.612"
         id="tspan190">if sucess after fail</tspan>
    </text>
  </g>
  <g
     id="g192">
    <line
       style="fill: none; fill-opacity:0; stroke-width: 2; stroke: #000000"
       x1="592.776"
       y1="700.712"
       x2="710.722"
       y2="754.662"
       id="line194" />
    <polygon
       style="fill: #000000"
       points="717.543,757.782 706.369,758.169 710.722,754.662 710.529,749.075 "
       id="polygon196" />
    <polygon
       style="fill: none; fill-opacity:0; stroke-width: 2; stroke: #000000"
       points="717.543,757.782 706.369,758.169 710.722,754.662 710.529,749.075 "
       id="polygon198" />
  </g>
  <g
     id="g200">
    <rect
       style="fill: #bbffb4"
       x="902.976"
       y="741.712"
       width="92.5"
       height="36"
       rx="20"
       ry="20"
       id="rect202" />
    <rect
       style="fill: none; fill-opacity:0; stroke-width: 2; stroke: #000000"
       x="902.976"
       y="741.712"
       width="92.5"
       height="36"
       rx="20"
       ry="20"
       id="rect204" />
    <text
       style="fill: #000000;text-anchor:middle;font-size:12.8;font-family:sanserif;font-style:normal;font-weight:normal"
       x="949.226"
       y="763.612"
       id="text206">
      <tspan
         x="949.226"
         y="763.612"
         id="tspan208">close ticket</tspan>
    </text>
  </g>
  <g
     id="g210">
    <line
       style="fill: none; fill-opacity:0; stroke-width: 2; stroke: #000000"
       x1="852.526"
       y1="758.712"
       x2="893.242"
       y2="759.519"
       id="line212" />
    <polygon
       style="fill: #000000"
       points="900.74,759.668 890.643,764.469 893.242,759.519 890.841,754.47 "
       id="polygon214" />
    <polygon
       style="fill: none; fill-opacity:0; stroke-width: 2; stroke: #000000"
       points="900.74,759.668 890.643,764.469 893.242,759.519 890.841,754.47 "
       id="polygon216" />
  </g>
</svg>
